<svg width="460" height="460" fill="none" xmlns="http://www.w3.org/2000/svg"><path d="M227.755 172.242c.451-.064.497-2.373.239-2.401-.92-.083-1.269 2.558-.239 2.401ZM130.07 205.721c.754-.276 5.621.745 5.621-.8 0-.994-5.005-2.3-5.621-1.84.049.661.325 1.285.782 1.766 0 .488-2.107-.055-2.291.46a1.116 1.116 0 0 0 1.509.414Z" stroke="gray" stroke-miterlimit="10"/><path d="M174.22 236.155c-2.042.11-4.011-2.512-6.246-2.825-1.988-.276-2.107-.487-3.855.23 1.95-.8-3.146-3.155-3.174-3.164-.856-.23-1.73 2.088-2.502 1.757.156.064.919-1.84.137-2.558-.782-.717-2.171 1.012-2.244.966.128.074 2.18-5.133-.322-6.495-2.411-1.582-4.389-1.288-6.578-2.383-2.043-1.03-2.227-3.56-5.097-3.376 1.168-.074-2.263-3.064-1.316-2.687-1.527-.607-4.48.681-6.44.24-.782-.166-1.288-2.172-2.419-2.172-1.73 0-1.261 3.101-1.537 3.68-.8 1.758-1.122-4.6-.313-4.084-.579-.368-4.6 2.428-5.05 2.76-.92.68-1.27 2.005-2.208 2.281 1.582-.469-5.06-1.205-3.68-.681-4.205-1.6-2.282-2.143-3.423-5.851-.331-1.049.764-1.545-.129-2.502-.892-.957-4.434-1.104-5.52-.405-.772.423.102-2.907.442-3.257 1.371-1.389 1.84-4.6-.313-4.673-3.523-.092-1.785 3.026-3.974 4.112-6.587 3.275-6.882-5.989-6.67-9.881.359-6.854 5.299-4.995 9.421-4.517-1.086-.129-.166-1.766 1.085-1.84a9.767 9.767 0 0 1 3.395.745c2.079.617 1.555 0 3.1 2.622.608 1.049.847 3.68 2.208 4.113.12 0-.073-9.587.709-10.737.984-1.453 3.339-3.257 4.085-4.213 1.702-2.181.064.276.276-2.254 0-.267-.681-3.874.478-3.874-.451 0 .396 3.386.35 3.414 1.159-.801.404-1.978.46-2.889 0-.727 3.753-1.969 4.057-2.631.129-.276-1.794 0-1.794-.056 0-.975 3.017-.809 3.459-1.113a9.002 9.002 0 0 1 1.279-3.514c1.361-1.408 4.756-1.095 5.805-3.248-.129.267.451 1.334 1.178 1.123-2.677.782-3.956 2.208-.745 1.729 1.637-.248 4.121-1.84 5.345-2.76.073-.055-.562-.846-.47-1.398-.055.349-2.024 1.904-2.484 1.84-3.128-.571-1.637-2.668-2.851-3.478a2.04 2.04 0 0 1-1.04.193c-.331-1.122 3.781-1.968-.175-2.484-2.76-.358-4.094 3.616-5.971 3.616.92 0 5.069-5.042 7.029-5.52.782-.258 11.822-1.058 10.902-3.496a7.85 7.85 0 0 0-.782-.396c-.764-.708 1.996-1.407-1.067-1.766a3.768 3.768 0 0 1-.083-1.021c-.294-.203-3.385 1.076-3.385 1.067-.24-1.122 2.861-1.251 3.21-1.84 0 .046-6.633-3.174-6.035-3.965 1.224-1.583 1.214.184.423-2.273-.221-.671-3.174-4.811-2.962-5.004-1.435 1.297-.626 4.25-3.128 4.259-2.76 0-2.493-3.165-2.493-4.977 0-.8-6.854-2.843-7.36-2.824-3.874.101-2.282.349-2.521 3.422-.046.524-.617 2.705-.561 3.018.46 2.382 2.428 3.146 1.223 6.2-.368.92-2.567 1.187-2.76 1.73-.211.727.856 1.463.69 2.328-.064.349.359 3.634.138 3.532-1.463-.69-.819.672-2.456-.791-1.84-1.647-.561-4.029-1.638-5.281-.423-.506-5.768-2.53-6.955-3.072a7.414 7.414 0 0 0-5.152-.81c.469-.074-.442-2.76-.644-3.064-1.159-1.968-2.41.221-1.711-3.68.175-.975 4.535-5.658 4.6-5.52 0-.193-3.57-1.527-3.542-1.591.497-1.187 3.523 2.116 4.351-.377-.377 1.15 4.794-1.123 3.506-2.052-.543-.386-3.579 0-3.395-1.426-.12.92 6.504 1.288 3.873-1.058-.092-.083 2.41 0 2.916 0 .35 0-.92-1.214-.837-1.334.377-.377 1.702 1.84 3.441-.092 1.343-1.5-.699-1.656-.782-3.11 0-.165 2.07-.726 1.38-1.766-.524-.791-3.275-1.739-4.186-1.444-.635.202.23 3.293-1.49 4.296a2.187 2.187 0 0 1-.516-.8c-.726.046.654 2.686-.276 2.254-.929-.433-1.012-2.31-1.159-2.438-.368-.322-.855-1.509-1.472-2.061-.616-.552-1.205 2.051-1.444 2.097-.92.166.119-2.254.184-2.364.423-.791-2.236-.534-2.19-.488-.846-.736.58-1.14.727-1.37-.184.294-2.042-3.027-2.042-3.009-1.224-2.76-.396 0-.709-3.137.147 1.463 5.686-2.438 3.763-3.073-1.923-.635-4.747-.846-5.18.709-.239.92-.101 4.416-.46 5.823-.119.451-1.628 1.178-1.104 2.972.212.699 4.242 1.61 2.346 3.146a.746.746 0 0 1 .782-.69c.056.12-2.06 3.993-1.84 3.827a28.464 28.464 0 0 1-2.428-2.484c-.111-.202 2.695-.634 2.842-.772 1.086-1.058-1.591-1.04-1.591-1.196 0-.304 1.435-.12.92-.516a3.181 3.181 0 0 0-2.432-.591 3.185 3.185 0 0 0-2.104 1.355c-.496.662 3.947 2.355-1.398 3.045-2.438.313-3.432-.92-5.52-1.407-.617-.148-.589-.792-1.702-.92-.386 0-3.036 1.122-2.227 1.49.59.258 2.76-1.233 3.12-.856-1.436-1.573-1.703 4.435-2.632 3.947-.414-.221-.156-1.665-1.417-2.079-1.73-.58-5.648 1.205-6.936-.212-.626-.68 1.646-.846 1.471-1.251-.634-1.472-4.24-1.573-5.52-1.886-1.278-.313-2.254-1.039-3.422-1.168-1.407-.147-1.941.855-3.248.855-.193 0 .267-1.748-.34-1.84a7.165 7.165 0 0 1-1.582 1.84c-1.251-.092-1.086-3.164-2.576-2.934 1.012-.157-2.126 2.226-1.914 2.106a41.587 41.587 0 0 1-4.13 2.31c-.783-.046 4.406-3.23 4.397-3.11.055-.626-4.49 1.297-4.996 1.573-.506.276 0-.8-.92-.487-2.17.782-.625 1.453-1.15 2.024.212-.221-13.422-3.211-14.324-3.285-1.334-.11-9.623-1.049-10.12-1.619-.92-.994-3.285.064-4.37 1.251-.874.92-7.36 2.383-7.645 3.791-.663 2.953 6.228 3.505 6.752 5.115 0 .129-7.755-.295-8.61 1.748.294-.699 2.17 2.235 2.364 2.309.92.331 5.63-.681 5.648-.653 1.325 1.315-1.554 3.1-2.263 3.763-.855.791-.92-.488-1.95.855a16.682 16.682 0 0 1-1.941 1.573c.22-.202 1.564 2.806 1.61 2.843.819.718 3.33.709 3.036.414.79.791-.074 2.447.662 2.834.497.267 2.217.055 3.165.441-.846-.34 2.604-1.499 2.401-.92-.47 1.417-6.127 8.28-6.955 7.36.994 1.095 11.196-5.796 11.196-7.424a2.764 2.764 0 0 0-.92-.515c-.23-.58 5.52-5.364 5.318-3.505 0-.194-3.432 2.622-2.64 3.348.239.212 4.038-1.104 4.6-1.324.56-.221-1.38-1.942 0-2.19.469-.083 2.281.984 2.355.92a.636.636 0 0 0-.81.506c.175.552 8.114.202 8.611.644-.239-.212 5.097 4.398 5.042 3.11a2.162 2.162 0 0 1-.166-1.472c2.54 1.84-1.186 2.355-1.177 2.244 0 .129 1.932 2.852 1.84 2.88.358-.193-.497-2.466.082-2.254.13.288.185.605.157.92.644.828.754-1.84.672-1.656.137-.359.202 3.514-.203 3.459-.589-.083 3.377-.34 2.208.23.368-.184-1.444-1.26-.441-1.343 1.545-.129.33 1.306-.7 1.398-.007.756.055 1.51.184 2.254.313.23 1.73-1.104 2.448-.975.717.129.588 2.76.984 3.312.285.396 2.272 2.392 2.53 2.76a21.078 21.078 0 0 0 4.177 3.367c-.138-.11 5.225 4.416 2.272 4.416-.11 0-3.202-8.326-6.633-5.906.718-.506 4.6 5.078 4.867 5.796 1.435 4.122-.92 8.915.68 13.414 1.095 3.082 3.984 5.032 5.934 7.148a26.764 26.764 0 0 1 3.1 4.692c1.372 2.318 1.675 2.907 1.4 4.232 0 .064 6.182 6.532 5.942 6.707.59-.423-6.127-12.549-5.933-12.577 2.428-.248 2.64 3.552 3.09 4.251 1.243 1.923 3.506 3.68 4.868 5.465 2.327 2.99 2.64 6.127 4.72 8.28 1.38 1.426 4.6 2.668 6.439 3.247 2.429.773 4.996.046 6.955 1.96.92.855 2.309.92 2.935 1.518 1.72 1.582 2.429.791 4.039 2.447 1.085 1.113 1.398 2.134 2.024 2.76 1.03 1.012 2.76 2.935 4.315 3.045 1.554.111 1.058-1.711 1.84-1.527 3.459.819 2.833 5.456 1.435 8.28-1.509 3.082-3.441 3.616-1.739 6.725.12.221-1.684 3.147-1.509 4.057.331 1.73 4.195 6.854 5.097 8.648 1.73 3.404 3.938 3.754 6.385 6.532 2.235 2.54 1.527 4.6 1.141 8.06-.562 5.069-.709 10.055-1.785 14.968-.433 1.96-4.149 12.162-2.76 14.122.635.92.92-2.567 1.509-2.76.588-.193-.378 7.608-.994 7.176-.322-.23.359-2.53-.488-2.153.773-.34-1.582 3.248-1.591 3.285.092-1.012 1.205 1.232 1.251 1.591.074.626 1.362-.414 1.297.497.092-1.362-3.864 1.564-1.996 1.279.309-.181.593-.4.846-.653.276-.056-1.95 2.327-.46 2.566.295.046.451-1.527.865-1.113.874.874-1.665 2.76-1.067 3.478.119.147 1.361-.561 1.601-.065.073.157-.838.865-.69.92.496.184 1.628-.487 1.84.23.211.718-2.208.056-1.38 1.233.312.442 2.281-1.426 2.649-.202-.101-.35-2.208 1.104-2.281 1.196a22.99 22.99 0 0 1 2.594-.598c.184.405-2.88 1.591-2.962 1.242.092.395 1.84 1.49 2.134 1.214.478-.487-.635-.248-.239-.763.276-.368 2.631-1.675 2.76-2.024a1.353 1.353 0 0 0-.653 1.214c.352.064.71.083 1.067.055-.295-.331-.709 1.546-.598 1.491a1.502 1.502 0 0 1-.488-1.058c-.524-.23-.257 1.104-.331 1.048a.707.707 0 0 0-.856-.478c.433-.607-.533 1.84-.533 1.003 0-.469 1.49 1.371 1.453 1.334.202-.301.343-.639.414-.994.794.615 1.62 1.187 2.475 1.711.46.138-.331-1.076-.064-1.039a15.47 15.47 0 0 0 3.569-.736c-1.656-.607-3.68-3.551-3.992-3.68-.249-.065-1.187.138-1.049-.497.138-.635 1.021.221 1.251 0 .23-.221-1.04-2.18-.773-2.76.414-.92 1.141-1.178 1.61-2.033.626-1.141 2.171-2.015 2.263-3.285.083-1.002-1.444-1.021-1.37-1.306.285-1.104.993-3.809 2.134-5.244.432-.552 1.904-1.996 1.895-2.006-.359-.303-3.174-.055-1.693-2.29-.469.699 3.358-.608 3.165-.497.525-.304-.073-2.07.194-2.355 1.306-1.39 6.117.625 6.66-3.082.12-.819-2.134-3.68-2.18-3.625.764-.801 4.324.92 6.283-1.159.488-.516 2.926-4.83 2.917-4.702a8.81 8.81 0 0 1-.92 1.794c0-.855 2.861-3.22 3.229-4.213.534-1.417-.11-3.266.626-4.6 1.481-2.595 4.802-2.098 6.642-3.257 2.365-1.5 3.045-3.68 3.772-6.44.451-1.711 0-6.072.92-7.443-.129.276 9.218-10.009 3.376-9.678Z" stroke="gray" stroke-miterlimit="10"/><path d="M128.8 202.924c1.353-1.84-13.938-5.133-12.024-2.346-.92-1.334 6.099.451 6.44.635 1.141.653 3.919 3.947 5.584 1.711ZM123.924 205.436c.212.396 2.19.92 2.392.46.203-.46-2.649-.957-2.392-.46ZM137.31 205.546c.46.801 1.84.322 1.923 0 .212-.57-2.392-.791-1.923 0ZM144.753 304.042c.625.34 1.923-1.371 1.352-1.482-.57-.11-1.95 1.16-1.352 1.482ZM146.28 304.161c.414.221 2.125-.561 1.923-.975-.377-.856-2.309.745-1.923.975ZM108.615 229.356c-.524.856.516 1.693.727 1.316.212-.378-.202-2.172-.727-1.316ZM155.36 120.244c.111-2.061-3.045-1.058-3.514-.92-.469.138 3.367 3.441 3.514.92Z" stroke="gray" stroke-miterlimit="10"/><path d="M190.725 118.836c-.377.23-5.023-.496-5.05-.414.119-.312 1.683-2.106 1.481-2.18 1.021.386 3.956 3.873 4.094.644.11-1.886-2.65-1.886-3.055-3.45-.119-.432 3.588 1.196 2.843-1.104-.414-1.306-4.057.92-3.91-.478-.055.487 1.261-1.712 1.031-1.463 1.159-1.279 6.44 3.128 3.026-1.297-.138-.175 3.064-.12 3.22-.773.157-.653-3.183-.561-2.428-1.84.92-1.564 3.339.708 1.84-2.493.055.11-3.855-1.224-3.257-1.84.598-.617 5.189 0 5.014-.709-.442-1.674-2.714.092-2.898-1.343-.101-.745 1.38 0 1.601-.386.828-1.307-3.588-.249-3.432-.13-1.196-.92 4.894-6.596 5.069-6.356-1.113-1.49-2.134.993-2.925.211-.792-.782 4.406-1.435 4.544-1.527.442-.276-2.76-.92-2.916-.708.561-.92 8.059-.838 8.059-2.908 0-2.76-7.111-.11-7.903.148-.625.193-1.527-.617-1.959-.451-1.426.543-2.76 2.861-4.269 3.082 1.5-.221 3.202-3.846.754-4.278-.386-.065-4.526 2.99-4.784 2.07-.202-.727 2.494-1.067 2.429-1.675-.129-1.288-8.795.727-8.813.534-.129-1.757 12.07-1.049 13.294-2.705.68-.92-15.512-3.533-16.974-3.155-.368.092-2.567.874-2.816.92a11.147 11.147 0 0 0-1.527-.083c-2.76.313-5.437.129-8.188.653-.34.064 1.196 1.095 1.178 1.187-.019.092-2.411.248-2.079.68-.074-.091 3.385 2.457 3.146 2.512-1.941.414-5.52-4.02-7.452-2.585-.478.35 1.426 1.518 1.426 1.785 0 1.067-3.901-1.215-3.79-1.215-.286 0-.175 2.328-.727 2.678 1.683-1.05-2.079-2.53-2.668-2.586a3.148 3.148 0 0 0-3.101 1.785c-.874.304-2.162-.754-3.293-.294-.81.331.717 1.693-.405 2.309-.304.166-8.17.359-7.121 2.76.791 1.84 5.042-.083 1.27 3-1.031.836-4.011.496-5.309 1.38-6.026 4.112 5.576 1.398 5.456 3.679 0 .258-6.155.267-6.035.837.156.838 4.305 2.76 5.409 2.862 2.236.211 4.38-1.463 7.36 0 2.613 1.26 5.254 3.845 6.036 6.762.92 3.413-1.252 3.845 2.327 3.845a20.232 20.232 0 0 0 3.055 3.285c-.129.101-3.993-1.528-3.993-.543 0 2.3 5.391.616 3.956 4.719-.221.608-1.923-.257-2.429.985a6.147 6.147 0 0 0-.607 2.631c-.083 1.656 2.401 7.36 4.232 9.899 1.472 2.015 2.346 2.328 4.425 3.266 3.257 1.463 2.502 1.647 4.342-1.076.709-1.067-.386-2.098-.101-2.926.147-.432 1.555-.423 1.767-1.352.266-1.196.101-3.174.257-3.68.394-.045.792.009 1.159.156.157-.092 2.181-2.815 2.42-2.815a.858.858 0 0 1 .156 1.095c.396 1.242 5.042-2.898 5.134-2.972 1.776-1.288 1.518-1.371 3.1-2.07 3.506-1.499 7.452-2.815 10.304-4.499ZM72.11 104.604c1.012-.552 1.012 0 1.775-.8.216.388.496.736.828 1.03 1.206 0 1.693-2.594 2.448-2.76.754-.166.23 2.3 1.968.616.663-.634.516-1.223 1.16-1.932.174-.193-3.68-.064-4.196.111-1.462.515-4.038 3.772-3.983 3.735ZM79.819 103.574c-1.739.138.92 1.269.865.993-.713.006-1.41.21-2.015.589-.313.442 1.739.276 1.518.359a3.83 3.83 0 0 0-2.088.745c1.113 1.628 3.008.083 3.891-.469-.46.285 2.705 1.067 2.917.745-.304.451-3.276.865-3.23 1.343.166 1.546 5.934-.506 6.79-.92 2.861-1.251 3.68-.239 2.355-2.76.12.203-3.091-2.015-3.597-1.748-1.49.773.92 2.319.561 2.861-.855 1.408-3.744-1.582-4.425-1.757-1.757-.368-2.088-.092-3.542.019ZM99.296 115.846c2.107 1.583 4.6-4.333 3.238-4.406a.989.989 0 0 0-.347.576.988.988 0 0 0 .099.666c.147-.313-1.73-.92-1.693-.92-.405-.635 2.677-1.215.681-2.567-1.481-1.012-1.306.865-1.279.855.258-.128-4.434-.542-2.944.801a9.665 9.665 0 0 0 1.537.294c1.766 1.537-3.073.709-2.576.617-1.408.294 2.852 3.762 3.284 4.084ZM69.773 114.825a23.826 23.826 0 0 1 1.665 2.015c1.27 0 2.604-1.84 3.23-2.318 1.637-1.224 3.964-2.42 5.62-3.791.617-.506-7.553-2.852-8.62-2.521-3.422 1.077-.442.341-1.555 2.227-.35.579-2.19 3.615-1.96 3.901a4.287 4.287 0 0 0 1.62.487ZM76.02 105.46c.92.11 1.84-.801 1.84-1.316s-2.31 1.26-1.84 1.316ZM131.265 116.84a.998.998 0 0 0 .929-.639.987.987 0 0 0 .065-.391c.221.754-3.928-1.417-4.306-1.546-.92-.313-.34-1.159-1.84-1.5-1.021-.23-2.585 1.288-2.539 1.298-1.38-.488-.8.101-2.364.101-1.15 0 .791-6.302-4.205-3.285-3.017 1.84-.515 2.76-.377 4.711 0 .322-2.254-.672-2.162-2.135.083-1.324 1.739-2.511 1.739-3.348 0-1.546-5.437 1.84-5.704 3.072-.359 1.62 1.978 4.858 2.935 3.588-.249.322-2.549-.303-2.484.304.331 3.321 12.3 1.251 12.558 1.923a1.373 1.373 0 0 1-.607-.92c.165-.552 4.213 2.511 4.241 2.76a3.32 3.32 0 0 0-1.15 1.085c.773.644 1.628-.653 2.916.681 1.454 1.509 1.426 1.196 1.776 3.487.073.478 4.397-.92 3.615 1.076-.782 1.997-1.932-.515-2.502-.331-.57.184-2.052.239-2.843.479.06.511.223 1.006.479 1.453-1.224.598-3.211.065-4.15.92-3.45 2.953 3.68 1.159 4.665 1.472.984.313 6.946 7.599 8.491 5.52.387-.533-2.622-3.79-3.183-3.68 2.282-.662 5.631 3.11 4.435-.708-.534-1.702-4.6-3.018-2.816-5.143.736-.92 3.809 2.88 4.324 2.861 0 0 3.018-3.165 3.018-3.146 0-2.116-8.335-3.257-8.068-5.309a4.461 4.461 0 0 1 1.61-.395 2.666 2.666 0 0 0-1.353-.745c-.138-1.261 1.334-1.196-.782-1.196 1.537 0-2.125-1.666-2.263-1.721-.432-.138-2.098-.653-2.098-.653ZM59.68 151.708c-.966.561 1.206 3.22 1.785 2.824.175-.128-.368-3.652-1.785-2.824ZM94.245 106.6c.359-.46-.782-1.426-1.095-.625-.313.8.69 1.095 1.095.625ZM122.36 137.209c.368-.065 1.095-1.491.156-1.435-.938.055-.717 1.518-.156 1.435Z" stroke="gray" stroke-miterlimit="10"/><path d="M127.567 125.046c2.843-.524-2.76-2.576-1.84-1.784.617.506-1.582 2.41 1.84 1.784ZM117.76 135.948c.837.571 2.079-.966 1.978-1.426-.101-.46-2.962.718-1.978 1.426ZM107.778 106.72c.478 1.472 12.374 2.079 13.754 1.076 5.52-3.983-11.656-1.987-11.426-3.284.264-.346.573-.656.92-.92.423-.561-9.338-2.53-8.593-1.371 2.051 3.128 3.974.175 5.345 4.499ZM95.809 119.508c.276-.359 1.61.736 1.665-.055 0-.561-3.965-3.386-4.315-4.287a21.322 21.322 0 0 1-.267-3.68c.47-.424.424-.92-.156-1.334a2.15 2.15 0 0 0-2.29.57 7.07 7.07 0 0 1 1.453 1.371c0-.267-2.604-1.205-2.861-.69-.368.736 1.187 3.404.69 3.68-.092 0-3.515-3.846-3.68-2.972.363.31.674.676.92 1.086 0 .138-1.895.055-1.794.322-1.371-3.625-2.503.717-3.745-.451-.129-.129 2.135-1.84-.533-1.84-1.03 0-3.68 1.481-4.02 2.346-1.546 3.68 1.922.975 3.376 2.098.073.055-3.073.874-3.073 1.306 0 1.932 7.443-.193 7.443 1.435 0 .396-6.707 0-6.44 1.086.69 2.999 9.2 2.401 10.93 2.162.903-.224 1.829-.35 2.76-.377.579 0 5.344 1.637 4.774-.304-.46-1.518-1.555.46-1.932-.57a4.188 4.188 0 0 1 1.095-.902ZM140.586 158.792c.101.451 3.128 1.84 3.229 1.196.101-.644-3.321-1.592-3.229-1.196ZM110.4 99.976c-.92-.515-2.116.571-1.141.976.865.34 2.116-.46 1.141-.976ZM102.313 99.24c6.127 0-1.104-3.413-1.509-2.76-.405.654.791 2.76 1.509 2.76ZM102.939 93.582c.055 0 4.83 2.236 4.6 1.482.128.386-2.199.92-2.08 1.085 1.528 1.684 3.929 2.76 6.091 2.171.147 0 4.499-3.919 4.37-3.256-.175.92-3.211-3.073-3.377-3.202-.165-.129-6.614-3.514-7.24-3.036a.925.925 0 0 0 .773.672c0 .358-1.583.073-1.73.368.295.233.58.472.856.717-.313.607-2.135-.294-2.07.92.386.464.874.833 1.426 1.077.037.644-3.45 0-1.619 1.002ZM121.063 110.198c-1.316 3.109 5.308 2.392 5.308 1.711 0-1.04-4.931-2.595-5.308-1.711ZM106.536 99.526c-.11-.35-4.057.174-3.44.68 1.039.856 3.542-.34 3.44-.68ZM82.524 99.461c.267-.68-1.72-.57-1.555-.34.36.515 1.297 1.03 1.555.34ZM105.386 105.69c-.837-.69-3.312.966-2.972 1.251 1.353 1.15 6.035 1.269 2.972-1.251ZM93.362 101.117c.414-.57-1.675-2.392-1.776-1.536-.101.855 1.334 2.143 1.776 1.536ZM97.943 102.12c-1.242-.524.525 1.84.331 1.84a4.602 4.602 0 0 0-1.978-.92c-.441.359.644 1.444.286 1.619-.562.267-1.932-2.364-2.705-2.41-1.656-.092.589 2.355.662 2.401 1.39.837 2.484.193 3.873.57-.193-.055 1.537 4.407 3.165.46 1.187-2.916-2.217-2.99-3.634-3.56ZM86.848 99.176c.92-.147-3.68-1.242-3.68.515-.018 2.981 3.69-.515 3.68-.515ZM84.3 98.09c.423.194 3.386.157 3.386-.45 0-2.218-4.913.239-4.794.34a5.14 5.14 0 0 0 1.408.11ZM100.124 93.638c.368-.681-2.19-1.224-1.555-.626.359.34 1.196 1.316 1.555.626ZM92.994 96.324c.837-.276 1.362 0 1.564.8-.101.249-1.932.175-1.84.34.092.166 10.019 4.076 4.95-.92a5.271 5.271 0 0 0-2.402-1.296c-4.48-.552-1.904.81-2.272 1.076ZM121.532 132.811c.101-.598-5.088-4.149-5.364-4.112-.496.064-2.916 3.312-2.603 4.342.313 1.031 8.013-.506 7.967-.23Z" stroke="gray" stroke-miterlimit="10"/><path d="M109.241 87.934c1.84-1.325.322.552.34.58.374.015.744.074 1.104.174-2.079 2.438 3.883 2.042 3.855 1.582.267 3.79 7.599-1.27 8.482-.644 1.693 1.206-4.452 2.392-4.305 2.595 0 0 1.978 1.674 1.729 1.683-1.168.092-7.277-4.25-6.246-.386.239.92 5.041 2.76 5.041 3.606 0 0-6.053-1.84-6.201.8-.092 1.638 3.34-.294 3.377-.192-.534-1.187.533 3.68.533 2.76 0 1.104-4.692-2.87-4.498-.681.428.394.89.751 1.38 1.067 0 .377-4.03.708-3.082 1.665 1.085 1.113 13.33 1.454 13.947 0 .616-1.453-4.6-1.085-4.83-1.472.727 1.141 4.6-2.07 4.903-2.217 1.951-1.076 2.76.506 3.791-2.54.303-.92-3.377-.92-3.34-.92 2.144-1.517 4.968-.92 6.919-1.84 1.186-.588 8.215-4.222 8.28-4.756.064-.533-3.294-.138-3.487-.22 1.619.708 7.36-3.11 7.452-3.092-.46-.147-7.121-2.41-7.231-.699a2.535 2.535 0 0 1 1.076-.92c-1.306.515-7.848.166-8.731.212-2.999.156-5.897-.396-8.537.331-.534.147-12.807 4.177-13.037 3.68a1.16 1.16 0 0 0 1.316-.156ZM150.88 156.4a6.44 6.44 0 0 0-2.502 2.889c-.129.276-2.42 2.576-1.491 3.128 2.107 1.233 4.048-1.84 4.269.92-.074-.92 3.054.34 3.192.073-.055.12-.92-2.392-.506-2.208.562.258-4.149-2.999-4.084-2.456a5.133 5.133 0 0 1 1.122-2.346ZM19.053 152.72c.626-.285.92-.635.626-.975-.295-.341-1.104 1.214-.626.975ZM23.479 150.162c-.727-.285-1.463.874-1.564.865-.313-.055 2.263-.579 1.564-.865ZM35.77 143.824c-1.197 1.508-2.18 4.397.367 1.84.378-.387.93-3.469-.367-1.84ZM20.093 140.088c-.488-.294-.837-.156-1.04.396a1.605 1.605 0 0 0 1.638.543c1.766-.644-.607-1.04-.598-.939ZM220.801 174.947c-.083-.644-1.279.193-1.022.377.525.396 1.114.267 1.022-.377ZM247.241 181.415c0-.423-3.367 0-3.294 0-.432-.037 3.395 1.104 3.294 0ZM256.045 181.893c.265-.383.554-.748.865-1.095a10.85 10.85 0 0 0-2.668.92c-.46.884 1.904.782 1.803.175ZM198.923 131.781c3.68-.203.22-5.824-1.546-4.793-.405.23-2.999 1.674-3.468 1.536a.923.923 0 0 0-.828-.635c-2.31 2.76.082-.791-3.101-.791-.662 0 .341.92.166.92-.644-.074-1.619-.267-1.776.92-.073.524 2.65.405 2.549.304-.102-.102-.267.975-.175.92-.074.046-2.181.092-1.997.469.065.129 1.923.193 2.245.57.589.681-.635 1.527-.763 1.389 2.226 2.466 6.311-.671 8.694-.809ZM205.813 155.839c3.091 0 3.938-2.227 3.634-4.6-.101-.81 1.555-.92-.303-1.941a7.23 7.23 0 0 0-2.429.515c-.055 1.656.119.193-1.647 1.159-.055.055-.018 4.867.745 4.867ZM215.28 140.383c.294-.322.644-1.564.193-1.426-.451.138-.313 1.564-.193 1.426ZM209.355 143.373c-.23-.249-1.132 1.15-.782 1.141.349-.01 1.003-.893.782-1.141Z" stroke="gray" stroke-miterlimit="10"/><path d="M209.061 145.084c1.131-.994.064 3.818.064 3.202 0-.865 1.49.423 1.325.45.326-.253.562-.604.671-1.002.525.082-.34 2.06-.331 2.189.101.773 1.987-.487 2.098-.285 1.242 2.162-.994 3.064-.92 4.49a1.64 1.64 0 0 0-1.288 1.352c.951.23 1.921.372 2.898.423.064.35-4.094 1.205-3.073 2.567 0 0 7.47-1.638 7.912-2.088.442-.451-.764-.166-.727-.488.203-1.5 1.38-.8.727-2.438a4.28 4.28 0 0 1-1.454-1.141c-.837-1.417-1.656-4.462-3.68-4.315 0 0 1.307-2.171 1.169-2.511-.571-1.454-1.647.202-2.457-.773-.276-.322 1.666-1.619 1.095-2.153-.395-.441-3.947 2.447-4.029 2.521ZM230.34 149.785c-.221-.055 2.944-.855 1.435-1.886-1.288-.883-1.564 1.859-1.435 1.886ZM238.758 144.44c-.662 0-.92 1.435-.8 1.674.12.24 1.454-1.729.8-1.674ZM242.439 144.017c.465-.197.88-.495 1.214-.874.846-.939-2.521.947-1.214.874ZM243.423 142.342c.138-.285-1.003-.156-.745.102a.49.49 0 0 0 .596.051.506.506 0 0 0 .149-.153ZM238.326 92.81c.984.846 2.907-.13 4.13.634-.046 0-2.456.92-2.447.92.598 1.546 9.2.755 8.621-1.628-.074-.285-5.612-1.067-5.392-1.14a1.042 1.042 0 0 0-.202 1.25c-.46.34-2.686-1.49-3.183-1.426-.31.297-.565.646-.755 1.03l-.92-.69c-.984-.008 0 .93.148 1.05ZM231.113 95.128c-1.766-.414.92 2.76 1.343 2.972.819.469 1.472-1.518 2.061-1.748.589-.23-.248 1.085.322 1.048.388-.24.81-.42 1.251-.533.506.791-3.68 2.318-3.119 2.465 1.058.267 2.199-.423 3.294-.156a17.33 17.33 0 0 0-3.229 1.03c-.101 1.031 1.84.985 2.318 1.169a.79.79 0 0 1-.57.487c-.267.359 1.463.534 1.739.368a26.725 26.725 0 0 0 1.84-2.76c.211-.266 1.886-4.278 2.925-2.63-.276-.442.423 3.495.046 3.422.442.092 4.416.763 4.26-1.086.083.92-4.113-3.064-4.039-3.008-1.306-1.068-3.257-1.242-4.186-1.472.543.128-.865-1.748-1.536-1.97-.976-.321.22 3.47.285 3.166.92-3.901-2.714-.838-2.687-.847a6.723 6.723 0 0 0-1.085-.92c.309-.178.64-.314.984-.405-.303.12-6.716.368-2.217 1.408ZM230.046 97.437c.251.24.529.45.828.626-.387 0-.81-1.997-1.564-1.767a.992.992 0 0 0 .736 1.141ZM439.07 133.612a2.021 2.021 0 0 0-1.454.487c.23.285 3.607 1.077 3.607.313a3.287 3.287 0 0 0-2.153-.8ZM381.8 169.464c-.175-1.159-2.76 3.809-1.463 3.091-.23.129 1.086-.736 1.049-.543a10.5 10.5 0 0 0-.69-.92c0 .276 7.489.212 7.112-3.045.202 1.767-6.265-1.159-5.52-1.665.073-.064-.488 2.898-.488 3.082ZM367.944 185.49c.369.746.718-1.039.921-.147 0 .129-.497 2.815.368 2.622.708-.156 1.987-2.714.92-3.174-.313-.101-3.147-1.187-2.209.699ZM372.076 185.187c.257-1.132 1.839.211 1.839-1.564 0-.92-1.839 0-1.931.165-.304.562-.166 2.503.092 1.399Z" stroke="gray" stroke-miterlimit="10"/><path d="M374.643 181.341s-5.722.258-5.281 2.263c.055.258 4.821-.45 5.161-.524-1.067.248 1.022.754 1.27.736.81-.064.193-1.178.34-1.27.92-.561 3.68.497 4.6-.782.736-1.002 2.411-7.902 1.113-8.648-1.628-.92-2.437 4.306-3.201 5.373-.616.847-3.827 1.077-4.002 2.852ZM345.102 204.976c.242-.491.451-.999.625-1.518-.138-.524-3.082-.129-2.484 1.003.065.138 1.757 2.438 1.859.515ZM357.282 200.376c.57-.432 1.914-3.34 1.463-4.002-1.509-2.199-2.705 4.986-1.463 4.002ZM356.206 208.325c-.8 2.649 7.756 6.191 5.99 8.225 2.842-3.266-3.266-4.6-3.892-6.091-.626-1.49 2.199-3.625 0-4.904-1.472-.874-2.061 2.659-2.098 2.77ZM354.715 216.623a7.343 7.343 0 0 0-1.49 2.135c-.147-.286 3.008-2.273 2.429-3.542a1.94 1.94 0 0 0-.629.597c-.163.243-.269.52-.31.81ZM356.868 212.207c.101.534.35 1.638 1.113 1.371.764-.267-1.186-1.748-1.113-1.371ZM361.763 216.78c-.276-.378-.966.322-.865.607.101.285 1.141-.267.865-.607ZM362.912 217.424s-5.06 3.284-4.204 3.201c.855-.083 1.205-1.279 2.079-.662.874.616.34 2.603 2.015 2.603-1.251 0 1.334-2.677 1.214-2.208a2.822 2.822 0 0 0-1.104-2.934Z" stroke="gray" stroke-miterlimit="10"/><path d="M358.745 214.148a1.271 1.271 0 0 0 .064 1.758c2.181-.479-.763 1.656.92 2.051 1.445.35 1.546-4.361-.984-3.809ZM393.806 236.035c0 1.509-3.873.571-3.929 1.031-.211 2.189 5.962.073 4.693-1.518-.424-.129-.681.027-.764.487ZM395.37 235.888c1.04-.304-.809-1.619-1.03-1.674.34.073.69 1.766 1.03 1.674ZM388.7 238.547c.92.064-2.99-3.257-3.892-3.772-2.024-1.15-5.952-2.935-7.976-2.815-.589 0-1.408 1.84-2.126 1.711-1.444-.267-.616-1.84-1.646-2.236-.92-.359-.92-1.343-2.475-1.113-.267.046-1.776 1.233-1.242 1.352.294.065 3.349 1.767 3.367 1.242 0 .24-1.84.23-2.042.258-.847.156 3.183 2.134 3.44 2.254 1.776.865 3.064.681 4.094 2.493 1.031 1.813-1.444 1.711-1.03 2.53.764 1.5 6.376.175 6.974.184 1.637 0 1.61-.055 3.68.966-.056 0 5.032 2.539 4.489 1.638-.248-.359-4.637-4.747-3.615-4.692ZM310.804 217.046c-.755.092-.773 4.481.101 4.83 2.438.994 1.895-5.069-.101-4.83ZM273.902 245.134c0 .046-1.628 2.843-1.904 3.128-.736.736-2.668 1.187-3.248 1.84-1.6 1.84-.524 2.677-.8 5.4-.202 1.923-2.466 9.688 2.76 7.158 2.99-1.454 2.374-10 3.496-12.806.147-.368.92.828.92-.727s-.883-2.641-1.224-3.993ZM279 213.339c.386.441 1.15-.074 1.196-.249.046-.174-1.638-.248-1.196.249ZM403.338 242.061c.101.571.92.92 1.196.718.276-.203-1.307-1.307-1.196-.718ZM399.639 238.547c0 .147.8 1.03.984.92.184-.111-.938-1.187-.984-.92ZM403.539 240.838c.286-.203-1.61-1.344-1.637-.976-.028.368 1.352 1.178 1.637.976ZM397.44 236.955c-.064.341 1.049 2.153 1.463 1.84.736-.515-1.417-2.18-1.463-1.84ZM404.561 240.782c-.267.626.773 1.712.92 1.739.147.028-.681-2.226-.92-1.739ZM405.472 243.322c0 .138.727.828 1.067.57.34-.258-1.159-.819-1.067-.57ZM368.267 245.143c.258.23 1.555-.055 1.509-.395-.046-.341-1.904.055-1.509.395Z" stroke="gray" stroke-miterlimit="10"/><path d="M395.858 267.104s-.626-3.772-.304-3.625c-2.217-1.04-5.446-5.658-7.047-8.096-1.205-1.84-1.573-3.8-2.539-6.091-.497-1.186-1.527-.294-1.84-1.067-.515-1.131 0-3.496-1.113-4.535-.847-.792-1.297 5.658-1.307 5.685-1.177 3.349-.478 3.404-3.496 2.337-.864-.313-3.468-1.647-3.68-2.76-.193-.966 2.08-2.594 1.776-3.202.23.46-5.465-1.619-5.584-1.564-.148.368 0 .654.441.856-1.564-1.84-4.14 4.71-3.367 4.6.368-.046-2.328-.423-1.582 0-1.932-1.122-1.638-2.236-3.947-.58-1.5 1.086-.966 2.54-1.84 3.506-.23.257-.387-1.316-.745-1.077-1.242.837-.276 1.914-1.399 2.834-1.389 1.131-2.088 1.205-3.615 1.969-2.006.984-3.432 1.288-5.171 2.925a.858.858 0 0 1-.129-.8c0 .414-.496 1.711-.552 2.401-.055.69.663 3.358.47 3.763a1.384 1.384 0 0 1-.7-.653c.141.295.255.603.341.92-.285-.221-.561-.451-.837-.681-.332.828 2.171 5.235 2.41 6.219.12.506.092 5.272-.12 4.83 1.601 3.284 3.92 1.04 6.569.258a69.411 69.411 0 0 0 5.667-1.886c1.62-.608 5.06-1.84 6.827-1.546 1.085.175 6.513 4.425 5.271 4.986.378-.165 2.613-2.944 2.76-2.815.7.653-1.131 2.42-1.223 2.825-.331 1.591 1.84-1.252 1.251-.792.782-.625.414 1.942.34 1.739-.073-.202 2.567 3.395 2.816 3.597 1.49 1.288 5.198.092 5.161.074.055.286.055.579 0 .865-.341-.423 1.233.524 1.61.92-.764-.727 4.361-2.328 4.213-2.162.782-.92 1.233-4.959 1.84-6.275.378-1.076 1.923-7.534 2.374-7.902Z" stroke="gray" stroke-miterlimit="10"/><path d="M375.636 278.548c.285.286 1.242.203 1.398-.202.157-.405-1.674-.055-1.398.202ZM387.403 286.488a9.418 9.418 0 0 1-2.006-.635c.35-.101.065 5.391 3 3.846 1.481-.819 2.051-3.579-.994-3.211ZM412.601 296.074c.184.056.782-.11.442-.57-.34-.46-.883.442-.442.57ZM424.368 281.63c-.699 1.279-2.226-1.922-2.364-1.913a.67.67 0 0 0 0 .717c.12-.184-2.309-3.486-2.815-3.486-.055 0 1.748 3.569 1.904 4.011.543 1.582-1.242 1.518-1.177 2.383 0-.065 1.297 3.68 1.223 3.597 1.491 2.797 4.665-7.94 3.229-5.309ZM420.128 286.23c-1.463-1.14-10.258 6.716-7.599 8.501 2.659 1.785 8.832-7.507 7.599-8.501ZM425.905 252.08c.285.12 1.224-.221 1.224-.708 0-.488-1.656.57-1.224.708ZM424.295 253.626c.441.46 1.325.423 1.352-.396.028-.819-1.748-.009-1.352.396ZM273.377 91.623a1.908 1.908 0 0 0-1.104.69c.488 1.067 4.987-1.077 5.005-1.38.074-1.417-3.634.285-3.901.69ZM279.873 92.23c0-.607-1.84.064-1.453.193.386.129 1.453.414 1.453-.193ZM271.713 91.32a4.786 4.786 0 0 1 1.978-.424c.23-.626-4.011 0-3.882.35a1.272 1.272 0 0 0 .935.462 1.28 1.28 0 0 0 .969-.389ZM273.489 121.734c1.012 1.022 1.628-.46 2.153-.68.717-.286-4.021-1.215-2.153.68ZM280.95 110.234a43.357 43.357 0 0 0-3.956 4.416c0 .111 2.006 1.785 1.84 1.84-.175-.358-.11-.625.193-.791-.184 0 5.024 4.361 5.254 1.84.064-.671-2.291-2.116-2.392-3.054-.102-.939.92-1.905 1.315-2.76a14.349 14.349 0 0 1 2.365-3.119c1.545-1.426 12.751-6.127 12.254-6.55-1.196-1.022-11.187 2.244-12.806 3.256-.874.608-4.039 4.922-4.067 4.922ZM390.54 107.842a3.139 3.139 0 0 0 2.816-.616c.239-2.622-11.326 0-2.816.616ZM381.653 109.167c0-.57-1.84.212-1.104.497.414.156 1.104.074 1.104-.497ZM332.396 98.974c.7.432 6.937-.608 7.149-1.84.211-1.233-3.616-1.583-3.496-.626-.69-5.428-2.751 3.027-3.653 2.466ZM327.014 93.6a3.289 3.289 0 0 0-.8 1.142c1.748 1.674 6.007 2.962 6.375 0 .313-2.512-5.575-1.822-5.575-1.141ZM325.174 92.534c1.132.524-.993.58-1.122.653-.607.303 2.254.138 2.76-.074.506-.211 4.305-1.325 3.606-2.18-2.806-3.533-5.786 1.352-5.244 1.6ZM347.392 108.486c-.801 1.758 1.407.525 1.426.23a.917.917 0 0 0-.658-.46.923.923 0 0 0-.768.23ZM280.674 90.822c.561.626 3.947.69 4.094-.414.046-.377-2.815-.92-2.99-.855.487-.074-.801 1.6-1.104 1.27ZM324.273 89.838c.138-.57-2.162-.322-1.564.22.211.194 1.426.35 1.564-.22ZM428.103 117.392c.157.12 3.22-.092 2.613-.81-1.435-1.72-4.508.727-4.278.847a32.798 32.798 0 0 1 1.665-.037ZM377.2 106.812a5.526 5.526 0 0 0 3.791.764c.92-.175 3.321-1.592 2.41-1.914.432.156 1.702 3.054 2.447.81.626-1.84-1.141-1.417-2.76-1.942-.138-.046-2.99-.119-3.008-.119.432-.083-5.575.938-2.88 2.401ZM384.432 111.679c1.84-.442-4.766-2.65-3.469-.607.414.662 2.852.763 3.469.607Z" stroke="gray" stroke-miterlimit="10"/><path d="m437.093 129.361 1.315.304c.341 0-.432-.451-.331-.515-.396.248 2.328-.69 1.702-.92.046 0-5.336-3.202-5.41-2.089.083-1.242.543 2.006.359 1.408-.993-3.285-7.709-6.882-11.472-7.691-2.089-.451-5.649-.378-6.919.211.102-.055.856 1.61-.174 2.245-.479.294-2.76-1.711-2.227-1.96.534-.248 1.205.874 1.343-.193.102-.865-4.406.35-5.06.442a24.926 24.926 0 0 1-3.275-.249c-1.426-.138-.662 1.123-1.251 1.408.506-.239-1.84-2.263-1.84-2.245-2.052-1.739-1.757-2.061-5.575-2.355-1.169-.092-6.882 0-7.461-1.739-.166-.515 1.738.101 1.232-.745-1.122-1.84-5.676.267-5.731.46.32-.187.628-.396.92-.626a5.408 5.408 0 0 0-1.316-.441c-.395-.644 1.84 0 1.84-.341.331-1.968-9.503-.809-8.537.534a1.018 1.018 0 0 0 .92 0c-.626-.35.11 2.383.046 1.555 0 .156-2.236-.258-2.604 0 .191.192.419.343.672.441 0 0-6.21-1.177-6.634-1.278-.423-.102-1.131 2.594-2.07 2.539-1.398-.083-2.465-3.413-3.174-3.367.391.191.826.277 1.261.248 1.775-1.04-4.425-4.72-5.75-4.444-.966.203-1.169 2.273-1.518 2.328-.525.092-5.52-.12-5.658-.699-.092-.313.671-.699.349-.782-2.576-.672-4.6.533-6.2.69-.424 0 .082-1.5-.543-1.61-.304-.055-4.499 0-4.122.469.23.083.469.147.709.212.064.552-5.254 1.398-5.364 1.692 1.141-2.934 9.743-3.68 9.044-6.78-.212-.92.358-1.684-1.546-2.594-2.429-1.141-4.26.68-6.44.138.232-.432.516-.834.846-1.196 0 .239-3.045-.589-3.422-.433.258-.11 2.098-.414 1.693-1.049-1.389-2.116-4.6.58-5.759 1.426.598-.432-2.236 3.322-2.337 1.555.232.242.488.461.763.653.129-.404-3.256.35-3.431.286.101-.249.211-.488.331-.727a23.477 23.477 0 0 0-3.79.727c.164.26.42.451.717.533-.055-.432-5.667 1.491-6.081 1.684-1.325.616-.644.561-1.214 1.325-.332 0-.672 0-1.003-.065-.12.129 1.15.727 1.159.837a5.552 5.552 0 0 1-.92.065s1.398.828.764 1.407c-.378.341-2.558.157-3.184.286-8.721 1.84 0 2.428-1.692 4.738-.672.92-5.033-2.88-6.312-1.61-.11.11 1.408 1.168 1.068 1.26-.663.184-1.675-.782-2.153.138-.377.736 3.082 1.904 2.815 2.226 0 0-3.68-.763-3.68-.818-.727-.828 1.251-3.193-.294-3.68-1.546-.488-2.457 6.946-1.84 7.792 1.665 2.263 4.774 1.067 5.823 4.517.552 1.84-3.192-2.557-1.564-1.84-1.113-.478-.754-1.444-2.226-1.187-2.098.359-.101 1.555-.92 2.549-.92 1.168-2.162 2.861-3.441 3.146-.35.083-3.487-.083-3.202-.92-.046.111 4.14-.423 4.84-2.76.441-1.481-.295-2.668-.617-4.361-.092-.487.138-5.593.175-5.52-2.475-4.075-6.596.571-6.808 3.46.055-.801-.092 2.999-.276 2.52 0 0 4.471 2.871 1.84 3.294-1.84.313-9.2-6.182-11.472-4.885.598-.341 3.992 5.833.717 4.508-1.288-.525.046-.644-2.916-.377 0 0-4.738.791-4.37.496.368-.294 1.021-.598.92-1.334 0 .47-6.192 2.494-7.057 2.871-1.205.524-.92 2.76-3.146 1.279-2.226-1.482 1.113-1.417 1.389-1.739 1.003-1.205-4.085-2.512-3.901-1.748 0-.212 1.196 3.818.24 3.119 2.382 1.72-.378 1.554-.534 1.674-2.76 2.208-2.76-.175-3.303 3.772-.092.662-2.281-.672-2.622-.405-.451-.285-.92-.579-1.334-.874-.809.377-.92.865-.368 1.472 1.334-.754 1.767 2.898-.561 1.058-.57-.451-3.726-7.36-5.014-6.753.92-.441 13.984 5.778 9.982-1.389-.764-1.38-8.906-4.821-9.596-3.956.31-.026.607-.131.865-.303-.11-.92-2.107 0-2.327-.212-.543-.598-1.84.745-2.236-.727.074.285 2.116-.267 2.171-.552.433-2.383-3.753-.257-3.238-.239-.414 0 .221-1.288.184-1.352-.847-1.629-1.564 1.38-2.033 1.38-.166 0 .11-1.426-.184-1.233a80.467 80.467 0 0 0-1.675 1.84c-.607.119 1.187-1.969 1.178-2.015-.175-1.086-2.033.994-2.024.994.579-.497-2.337 1.656-1.481 1.398-1.123.34.294-2.53.432-1.996.074.248-1.702.202-1.674.625.251.251.421.571.487.92a3.782 3.782 0 0 0-1.325-.046c.15.277.381.502.663.644a4.953 4.953 0 0 1-1.555-.533c.074 0 .497 1.591 0 1.288-.865-.571-.681-1.491-1.84-.966-.092 0-2.521 1.84-2.475 2.116.046.276 1.187-.24 1.003.726 0 0-2.052 0-1.978.092.083-.358.175-.708.285-1.067a44.123 44.123 0 0 1-3.496 3.101c.92 0 2.972-2.264 3.947-1.362 0 0-.147.994-.166 1.003-2.76 1.104-3.532 5.584-6.081 6.697-.221.102 1.04.92.617 1.104-1.454.562-1.463 1.123-2.668 2.116-.092.074-.92-1.058-.976-.349-.138 1.453-.855.331-1.582 1.417a1.013 1.013 0 0 0 .626.515c-.773-1.711-2.76 2.76-2.687 2.41-.441 2.705 1.325 1.84 1.463 2.273.396 1.389-1.61.736-1.518.662a7.927 7.927 0 0 0-.202 1.214c0 .506 1.076-.552 1.278 0 .138.368-.671.755-.782.92-1.361 2.08 4.6.47 3.892.626.92-.212 1.463-1.73 2.015-2.052.331-.202 2.907 7.839 3.165 7.931 1.214.46 3.744-3.229 4.149-3.349-.166.423-.377.524-.644.304.239-2.162 2.824-3.874 2.76-5.52 0-2.153-2.438-1.132-1.647-4.297.451-1.84 1.84-1.996 2.76-3.293.745-1.058 1.969-4.113 3.376-4.6 6.542-2.162-1.518 5.464-1.72 5.851-.506.92-.138 4.655.313 5.106 1.84 1.84 5.29.478 7.286-.065a4.595 4.595 0 0 1 2.263.92c.442.516-5.612 1.178-5.345 1.049-3.882 1.84-.138 1.785-1.113 2.907-1.159 1.84-1.398.442-1.84.838-.156.138-3.036.349-1.969 2.502 1.04 2.337-1.021 2.907-2.318 3.376.11 0-3.386.341-4.223.451-1.84.221-.865.479-1.748-.791-.377-.534-2.512 1.472-2.907 1.178a1.661 1.661 0 0 1 0-.874c-.506-.138-2.043 0-1.84-1.334 0-.24 1.334.708 1.444.119.203-1.113-.635-.377-.92-.92-.156-.248 1.435-2.935.607-3.845-.561-.617-1.49 1.481-1.49 1.481-.598.598-1.178-.469-1.27 2.024 0 .8 1.537 2.622 1.141 3.404-.294.598-3.634 1.214-4.259 1.619a30.174 30.174 0 0 0-3.138 3.137 16.34 16.34 0 0 1-2.125 2.116c-.92.433-2.925.184-3.229.359-.69.386.635 1.435 0 1.96-.635.524-2.456-1.104-2.88-.304-1.159 2.144.571.515 1.592 2.144 1.398 2.235 3.57 4.903.322 6.55-1.509.773-5.207-1.214-6.44-.552-2.309 1.26-.506 1.15-1.003 3.294-1.012 4.37-.92 6.2 2.677 7.36 2.512.818 5.171.303 7.259-2.494 1.656-2.226 2.65-6.09 5.18-7.663-.571.359 5.29-.663 4.802-.681 2.512.129.92-.23 3.091 1.435-.064-.055 8.28 7.599 5.925 7.599 1.334 0 .92-3.376 1.012-3.459a1.663 1.663 0 0 1 1.5.506c-.92-.276-9.2-9.2-5.152-8.979.552 0 4.903 4.95 6.293 5.732-1.362-.801 3.634 7.608 3.634 5.648 0-1.729-2.254 4.288.69 2.668a3.919 3.919 0 0 0-.203-1.297c.265.073.545.073.81 0 .432-.533-.92-.46-.626-.736.295-.276 1.684.515 1.481-.607-.239-1.362-.975 0-1.481-.543.166.184-.211-2.76-.451-2.613.467.134.944.226 1.426.276.782-.349 4.959-.322 5.971-1.334-.267.267-1.674-2.235-1.582-2.76a16.66 16.66 0 0 1 2.005-3.155c.479-.681.7-2.245 1.693-2.705.626-.294 3.423-.184 3.579.662-.474.382-1 .692-1.564.92-.055-.294 1.27 1.62 1.233 1.583-.037-.037 3.597-.92 3.68-1.031.211-.368-3.275-.165-1.601-1.959.396-.414 4.315-1.84 4.6-1.279.064.138-2.76 2.76-2.659 3.257.368 1.757 5.75 2.714 5.575 4.6-.239 2.594-3.33 1.683-5.142 1.647-.773 0-1.39-.874-2.144-.92-2.475-.157-3.928.414-6.265 1.067-2.999.837-6.321 2.392-2.843 5.934 1.628 1.665 3.22.92 5.06.993.607 0 4.306-.8 4.802-.478.497.322-1.076 4.701-1.269 5.17l.616.286c0 .119 0 .257-.046.377 0-.12 0-.258.046-.377l-.598-.276c-1.84 4.314-5.336 3.431-9.89 2.576-1.205-.221-2.18-.801-3.385-.966-1.951-.267-.92-1.84-3.515-.506-.855.45-.616 2.18-.708 2.217-1.537.607-8.161-1.647-9.872-3.404-1.711-1.757 1.187-3.257-.11-5.088-.791-1.113-6.183-.11-7.71.055-1.881.31-3.73.797-5.52 1.454-1.886.534-3.413.377-5.17.837-1.491.396-.92-.23-2.199.469 1.38-.736-2.972 3.239-2.438 2.383-.662 1.058-1.178 2.227-1.84 3.294-.478.828-.35 1.913-1.141 3.1-.515.782-1.564.92-2.143 1.509a20.763 20.763 0 0 0-3.818 6.118c-1.012 2.567-.414 2.981-.497 5.226-.083 2.088-.736 4.314-.672 6.375.074 2.263 1.095 3.174 2.199 4.959 2.484 4.039 5.428 7.774 10.194 8.28a21.556 21.556 0 0 0 7.461-1.04c.313-.082 3.505-1.84 3.836-1.444.876.53 1.779 1.015 2.705 1.454.423.202.258 1.223.8 1.472.543.248 1.15-.58 1.601-.295 2.53 1.592 1.555.212 2.843 3.128.248.644-.497 2.705-.488 3.027.056 2.622 1.04 3.008 2.567 5.667 1.261 2.181 2.861 6.44 2.521 8.97-.368 2.677-2.328 4.996-2.447 7.931-.203 1.968 2.603 6.605 3.036 8.666.782 3.68 1.913 5.934 3.146 9.43 1.675 4.756.239 5.787 5.52 5.124 5.134-.625 8.05-2.235 10.737-7.36a25.59 25.59 0 0 0 .92-4.094c1.84-2.649 2.925-1.205 3.431-4.664.359-2.456-1.177-2.447.157-4.802 1.067-1.896 4.002-2.181 5.142-3.883 2.356-3.542-.092-7.452-.763-11.04-.727-3.836 1.233-6.605 3.873-9.457 1.086-1.187 14.085-14.886 10.046-16.376-2.76-1.04-5.878 2.944-9.062.92M290.288 91.016c1.058-1.49-4.6-.672-3.331.45.607.534 2.843.23 3.331-.45ZM284.354 91.733c-.534.23-1.067.423-1.61.607-.709.792 3.588.663 3.864-.257.175-.561-2.328-.497-2.254-.35ZM284.179 89.682a9.2 9.2 0 0 0 2.152-.838c-.45-.616-3.615.59-3.68.378a1.84 1.84 0 0 0 1.528.46Z" stroke="gray" stroke-miterlimit="10"/><path d="M382.84 156.676c.736 1.84-1.463 7.093-.313 8.565-.782-1.003 1.748.101 1.767.111.018.009-1.012-3.027-.92-3.156.92-2.052 1.84-1.095 2.152-1.5.552-.745-2.695-9.016-2.235-9.31-1.307.837-.846 4.333-.451 5.29ZM299.524 111.992a2.914 2.914 0 0 0 1.84-.46c.718-1.445-3.404.193-1.84.46ZM310.565 112.139c-.074-.607-1.343.175-.92.423.423.248.984.184.92-.423ZM292.827 90.822l1.049-.552c.34-1.168-3.128.276-2.999.442a2.759 2.759 0 0 0 1.95.11ZM408.554 256.68c.073.46 2.99 2.898 3.404 2.594.414-.303-3.478-3.026-3.404-2.594ZM124.476 196.218c-.653-1.233.148 2.438.442 1.757a12.832 12.832 0 0 1-.442-1.757ZM143.676 216.393c.865.193 1.15-.101.838-.865-.617-.57-1.123.58-.838.865ZM342.424 233.413c0-.34-.92-.175-.616.304.303.478.616.037.616-.304ZM349.6 240.755c.453.125.929.141 1.389.046.616-.515-3.34-1.196-3.229-1.141a1.056 1.056 0 0 1 1.177-.92c-1.03.69-10.037-2.337-9.439-.202.23.901 9.697 2.824 10.102 2.217ZM360.273 240.801c.92 0 1.021-.12.377-.387-.46-.073-4.766.387-4.683.571.561 1.223 3.524-.138 4.306-.184ZM353.28 240.341c-.331.819-1.14-.285-1.564.276-.864 1.159 2.972 1.131 3.303.331.203-.46-1.573-.984-1.739-.607ZM343.086 228.85c2.622 2.677 1.343 4.986 5.667 5.216 3.598.184 3.8-2.677 6.137-5.602-.157.193-1.546-3.092-1.527-3.395.073-1.399 1.729-1.196 2.014-2.125.286-.93-3.339-1.592-3.532-1.546-1.169.258-.58 2.318-2.586 2.162-.064 0-3.523 3.965-3.532 3.993.257-.617-4.462-.571-2.641 1.297ZM329.36 227.82c-.074.377.312 1.481.726 1.03.415-.451-.644-1.408-.726-1.03ZM331.08 231.095c-.073.184.313.92.552.717.24-.202-.34-1.324-.552-.717Z" stroke="gray" stroke-miterlimit="10"/><path d="M339.719 235.318c-.101-1.601.8-1.178.791-2.208 0-.451-1.463-1.84-1.49-.985.28.277.528.586.736.92-.304.764-3.864-4.664-4.048-4.867-.828-.92-8.023-6.44-8.345-5.722-.23.534 5.52 8.814 6.284 9.862.763 1.049 6.403 8.078 6.072 3ZM357.181 242.88c0-1.03-2.052-.478-2.153-.644-.101-.166 2.153 1.564 2.153.644ZM354.853 233.036c-.165.304 2.19 3.744 1.215 4.149.92-.377.101-4.195 1.002-3.753 1.712.837-.184 3.201 2.107 1.416-1.214.92.065-6.292.994-4.25.119.276-5.18 1.665-3.855-.497 1.444-2.364 4.664.341 5.934-2.281-.764 1.582-3.919-.35-4.968.358-1.638 1.104-1.518 3.239-2.429 4.858ZM365.792 233.91c1.002.375 2.036.656 3.091.837 1.288 0-3.717-2.907-3.091-.837ZM365.967 227.93c0-2.558-2.125 2.714-.174 2.328 1.288-.258.174-2.374.174-2.328ZM362.056 242.199c.598-.791 2.604-.92 2.871-1.665.147-.442-3.082.984-3.386 1.021-.469.074-1.84 1.077-.92 1.564a1.593 1.593 0 0 0 1.435-.92ZM363.4 233.984c.147.607 1.15.92 1.426.423.276-.497-1.592-1.132-1.426-.423ZM226.486 173.236c-.322.598.405 4.02 1.739 2.337 1.095-1.389-.902-3.919-1.739-2.337ZM234.048 177.321c.248-.055-2.668-.258-2.411.515a8.755 8.755 0 0 0 2.558 1.638c.221-.706.486-1.397.791-2.07a.739.739 0 0 0-.938-.083Z" stroke="gray" stroke-miterlimit="10"/><path d="M26.68 419.557H427.93" stroke="#263238" stroke-linecap="round" stroke-linejoin="round"/><path d="M67.16 387.228s-24.37-42.798-18.75-53.682c5.622-10.884 20.002 8.694 20.002 8.694s-12.503-39.9-5.622-57.316c6.882-17.416 18.74 0 19.32 12.337.58 12.337-2.493 33.369-2.493 33.369s4.996-43.526 16.864-30.471c11.868 13.055-14.996 56.589-14.996 56.589s18.124-10.12 17.48 2.908c-.644 13.027-21.869 24.665-21.869 24.665" fill="#fff"/><path d="M67.372 379.252s-22.558-21.041-11.574-30.471c10.985-9.43 16.772 10.12 16.772 10.12s-12.144-60.214 7.526-62.394c19.67-2.181 5.198 52.237 5.198 52.237s16.771-23.22 15.64-4.351c-1.132 18.869-26.046 34.859-26.046 34.859M78.448 375.415l-15.244-16.514M75.274 376.694l4.122-48.272M74.63 373.198l13.663-18.106" stroke="#263238" stroke-miterlimit="10"/><path d="M94.383 369.831H52.229l4.213 49.726H90.17l4.214-49.726Z" fill="#263238"/><path d="m366.16 117.558-47.693 2.962a10.523 10.523 0 0 0-9.871 10.644l.239 19.164-13.864 1.472 13.974 7.213a10.53 10.53 0 0 0 6.665 9.646c1.29.509 2.667.757 4.053.731l46.304-.846a10.523 10.523 0 0 0 10.322-10.12l1.068-29.955a10.527 10.527 0 0 0-3.168-7.949 10.517 10.517 0 0 0-8.029-2.962Z" fill="#fff" stroke="#263238" stroke-miterlimit="10"/><path d="M356.5 122.507h-31.234v19.67H356.5v-19.67Z" fill="#8C8C8C" stroke="#263238" stroke-linecap="round" stroke-linejoin="round"/><path d="M356.5 122.507h-17.737v19.67H356.5v-19.67Z" fill="#696969" stroke="#263238" stroke-linecap="round" stroke-linejoin="round"/><path d="M347.245 122.507h-12.724v19.67h12.724v-19.67Z" fill="#fff" stroke="#263238" stroke-linecap="round" stroke-linejoin="round"/><path d="M325.036 158.093v-4.996c0-2.401 1.702-4.002 4.269-4.002s4.269 1.564 4.269 3.929c0 .11-.092.184-.23.202l-.819.055c-.147 0-.239 0-.239-.11v-.111a2.98 2.98 0 0 0-5.962 0v5.088a2.98 2.98 0 1 0 5.962 0 .182.182 0 0 1 .014-.089.18.18 0 0 1 .054-.073.191.191 0 0 1 .171-.04h.819c.138 0 .23 0 .23.092v.092c0 2.382-1.702 3.965-4.269 3.965s-4.269-1.583-4.269-4.002ZM336.012 150.172a.986.986 0 0 1 1.654-.784.984.984 0 0 1-.67 1.704.916.916 0 0 1-.984-.92Zm.349 11.555v-8.722a.238.238 0 0 1 .012-.092.229.229 0 0 1 .049-.079.206.206 0 0 1 .078-.052.219.219 0 0 1 .091-.016h.819a.219.219 0 0 1 .239.239v8.722a.22.22 0 0 1-.063.175.219.219 0 0 1-.176.064h-.819a.219.219 0 0 1-.091-.016.206.206 0 0 1-.078-.052.229.229 0 0 1-.049-.079.238.238 0 0 1-.012-.092ZM347.282 155.673v6.054a.206.206 0 0 1-.012.092.226.226 0 0 1-.126.132.24.24 0 0 1-.092.015h-.819a.22.22 0 0 1-.095-.012.221.221 0 0 1-.08-.052.221.221 0 0 1-.052-.08.22.22 0 0 1-.012-.095v-.653c0-.074-.055-.111-.11 0a3.851 3.851 0 0 1-2.834 1.076c-1.546 0-2.999-.745-2.999-2.659 0-1.913 1.38-2.944 3.744-2.944h2.125c.013.002.025 0 .037-.004a.094.094 0 0 0 .032-.019.08.08 0 0 0 .019-.032.077.077 0 0 0 .004-.037v-.671a1.832 1.832 0 0 0-.571-1.522 1.84 1.84 0 0 0-1.554-.475c-1.15 0-1.895.469-2.097 1.233a.209.209 0 0 1-.029.087.213.213 0 0 1-.147.102.216.216 0 0 1-.091-.005l-.92-.11c-.147 0-.239-.074-.221-.194.239-1.334 1.582-2.244 3.459-2.244 2.227-.037 3.441 1.223 3.441 3.017Zm-1.288 3.349v-1.398a.083.083 0 0 0-.092-.092h-1.904c-1.583 0-2.659.671-2.659 1.84 0 1.168.92 1.61 1.996 1.61 1.353.018 2.659-.69 2.659-1.96ZM349.922 159.583a7.876 7.876 0 0 1-.258-2.235c-.02-.747.06-1.493.24-2.218a3.77 3.77 0 0 1 5.722-1.812 3.766 3.766 0 0 1 1.38 1.812c.19.73.277 1.482.258 2.236a7.878 7.878 0 0 1-.258 2.236 3.742 3.742 0 0 1-3.542 2.53 3.742 3.742 0 0 1-3.542-2.53v-.019Zm5.888-.377a8.472 8.472 0 0 0 .147-1.84 7.677 7.677 0 0 0-.147-1.84 2.436 2.436 0 0 0-3.817-1.281c-.423.32-.731.77-.875 1.281a11.531 11.531 0 0 0 0 3.68 2.436 2.436 0 0 0 3.817 1.281c.423-.32.731-.77.875-1.281Z" fill="#263238"/><path d="m166.401 141.137-18.86-5.097 4.259-27.958a8.877 8.877 0 0 0-2.286-7.396 8.883 8.883 0 0 0-7.217-2.798l-40.048 3.312a8.874 8.874 0 0 0-6.042 3.097 8.859 8.859 0 0 0-2.082 6.462l2.944 36.671a8.88 8.88 0 0 0 8.501 8.16l30.82 1.215a8.86 8.86 0 0 0 9.127-7.526l.8-5.235 20.084-2.907Z" fill="#fff" stroke="#263238" stroke-miterlimit="10"/><path d="M138.377 105.708h-31.234v19.67h31.234v-19.67Z" fill="#8C8C8C" stroke="#263238" stroke-linecap="round" stroke-linejoin="round"/><path d="M138.377 110.474h-31.234v10.147h31.234v-10.147Z" fill="#fff" stroke="#263238" stroke-linecap="round" stroke-linejoin="round"/><path d="M114.402 132.48h.818a.22.22 0 0 1 .218.147.206.206 0 0 1 .012.092v12.255a.207.207 0 0 1-.012.092.203.203 0 0 1-.049.079.22.22 0 0 1-.169.068h-.818a.217.217 0 0 1-.095-.013.215.215 0 0 1-.132-.132.23.23 0 0 1-.013-.094v-5.52a.077.077 0 0 0-.004-.037.08.08 0 0 0-.019-.032.08.08 0 0 0-.032-.019.077.077 0 0 0-.037-.004h-5.759a.078.078 0 0 0-.037.004.083.083 0 0 0-.055.088v5.52a.214.214 0 0 1-.064.175.221.221 0 0 1-.175.064h-.819a.214.214 0 0 1-.173-.064.215.215 0 0 1-.057-.175v-12.292a.216.216 0 0 1 .136-.227.214.214 0 0 1 .094-.012h.819a.221.221 0 0 1 .239.239v5.438a.083.083 0 0 0 .024.068.079.079 0 0 0 .068.024h5.769a.083.083 0 0 0 .088-.056.087.087 0 0 0 .004-.036v-5.438a.216.216 0 0 1 .074-.147.217.217 0 0 1 .156-.055ZM118.523 142.793a7.94 7.94 0 0 1-.248-2.235 8.366 8.366 0 0 1 .23-2.218 3.777 3.777 0 0 1 3.556-2.495 3.78 3.78 0 0 1 3.555 2.495c.191.73.278 1.482.258 2.236a7.919 7.919 0 0 1-.258 2.236 3.745 3.745 0 0 1-1.37 1.828 3.747 3.747 0 0 1-4.353 0 3.757 3.757 0 0 1-1.37-1.828v-.019Zm5.888-.386a8.29 8.29 0 0 0 .147-1.84 7.78 7.78 0 0 0-.147-1.84 2.426 2.426 0 0 0-2.341-1.783 2.43 2.43 0 0 0-2.342 1.783 8.052 8.052 0 0 0-.147 1.84 7.838 7.838 0 0 0 .147 1.84 2.433 2.433 0 0 0 2.342 1.783 2.43 2.43 0 0 0 2.341-1.783ZM128.487 144.937v-12.255a.215.215 0 0 1 .013-.094.215.215 0 0 1 .132-.132.215.215 0 0 1 .094-.013h.819a.22.22 0 0 1 .218.147c.011.03.015.061.012.092v12.255a.206.206 0 0 1-.012.092.203.203 0 0 1-.049.079.22.22 0 0 1-.169.068h-.819a.214.214 0 0 1-.175-.064.219.219 0 0 1-.064-.175ZM139.325 138.92v6.054a.215.215 0 0 1-.013.094.215.215 0 0 1-.132.132.215.215 0 0 1-.094.013h-.819a.22.22 0 0 1-.175-.064.217.217 0 0 1-.064-.175v-.654c0-.073-.056-.11-.111 0a3.818 3.818 0 0 1-2.833 1.068c-1.546 0-3-.746-3-2.65s1.38-2.944 3.745-2.944h2.107c.012.001.025 0 .037-.004a.087.087 0 0 0 .051-.051.094.094 0 0 0 .004-.037v-.782a1.833 1.833 0 0 0-.568-1.528 1.844 1.844 0 0 0-1.558-.478c-1.14 0-1.886.479-2.088 1.242a.207.207 0 0 1-.097.153.207.207 0 0 1-.179.022l-.92-.101c-.138 0-.23-.074-.212-.202.23-1.325 1.583-2.236 3.45-2.236 2.245.037 3.469 1.288 3.469 3.128ZM138 142.223v-1.399a.083.083 0 0 0-.024-.068.072.072 0 0 0-.031-.02.092.092 0 0 0-.037-.004h-1.904c-1.583 0-2.659.672-2.659 1.84 0 1.169.92 1.62 2.005 1.62 1.371.018 2.65-.672 2.65-1.969Z" fill="#263238"/><path d="M381.147 189.216H356.61c-4.96 0-9.718 1.971-13.225 5.479a18.702 18.702 0 0 0-5.479 13.225v6.909l-12.226-.469 12.263 8.004v5.18a18.714 18.714 0 0 0 18.704 18.712h24.536a18.71 18.71 0 0 0 18.704-18.712V207.92a18.71 18.71 0 0 0-5.491-13.238 18.711 18.711 0 0 0-13.249-5.466Z" fill="#fff" stroke="#263238" stroke-miterlimit="10"/><path d="M359.214 224.112h.819a.225.225 0 0 1 .165.064.223.223 0 0 1 .065.166v12.254a.243.243 0 0 1-.012.093.223.223 0 0 1-.218.147h-.819a.223.223 0 0 1-.176-.064.217.217 0 0 1-.063-.176v-5.52a.083.083 0 0 0-.024-.068.087.087 0 0 0-.031-.02.094.094 0 0 0-.037-.004h-5.76a.083.083 0 0 0-.088.056c-.004.011-.005.024-.004.036v5.52a.217.217 0 0 1-.063.176.223.223 0 0 1-.176.064h-.819a.23.23 0 0 1-.175-.064.215.215 0 0 1-.051-.081.217.217 0 0 1-.013-.095v-12.254a.223.223 0 0 1 .147-.218.207.207 0 0 1 .092-.012h.819a.218.218 0 0 1 .224.138.207.207 0 0 1 .015.092v5.437a.092.092 0 0 0 .004.037.096.096 0 0 0 .02.032c.009.008.02.015.032.019a.073.073 0 0 0 .036.004h5.76c.012.002.025 0 .037-.004a.1.1 0 0 0 .031-.019.083.083 0 0 0 .024-.069v-5.437a.223.223 0 0 1 .067-.169.218.218 0 0 1 .172-.061ZM369.279 234.508a.21.21 0 0 1 .313-.11l.524.294c.129.074.184.184.111.304a3.552 3.552 0 0 1-3.377 1.987 3.361 3.361 0 0 1-3.404-2.273 7.06 7.06 0 0 1-.349-2.511 8.369 8.369 0 0 1 .165-2.107 3.44 3.44 0 0 1 3.515-2.604 3.395 3.395 0 0 1 3.634 3.128c.096.609.133 1.225.11 1.84a.214.214 0 0 1-.064.173.218.218 0 0 1-.081.049.2.2 0 0 1-.094.008h-5.815a.094.094 0 0 0-.037.004.087.087 0 0 0-.051.052.087.087 0 0 0-.004.036c-.014.448.023.895.111 1.334a2.343 2.343 0 0 0 2.465 1.776 2.497 2.497 0 0 0 2.328-1.38Zm-4.756-4.186c-.1.406-.149.824-.148 1.242a.079.079 0 0 0 .024.068c.009.009.02.016.031.02.012.004.025.005.037.004h4.674a.08.08 0 0 0 .034-.007.095.095 0 0 0 .028-.02.075.075 0 0 0 .017-.03c.004-.012.005-.023.004-.035a9.721 9.721 0 0 0-.101-1.168 2.273 2.273 0 0 0-2.346-1.776 2.153 2.153 0 0 0-2.254 1.702ZM373.078 236.596v-12.254a.223.223 0 0 1 .147-.218.206.206 0 0 1 .092-.012h.819a.201.201 0 0 1 .091.012.206.206 0 0 1 .127.127c.011.029.015.06.012.091v12.254a.235.235 0 0 1-.008.095.207.207 0 0 1-.128.132.201.201 0 0 1-.094.013h-.819a.219.219 0 0 1-.227-.145.217.217 0 0 1-.012-.095ZM377.302 236.596v-12.254a.213.213 0 0 1 .064-.166.23.23 0 0 1 .166-.064h.818a.218.218 0 0 1 .224.138.223.223 0 0 1 .016.092v12.254a.233.233 0 0 1-.064.176.223.223 0 0 1-.176.064h-.818a.22.22 0 0 1-.17-.068.25.25 0 0 1-.049-.079.225.225 0 0 1-.011-.093ZM381.478 234.453a7.843 7.843 0 0 1-.258-2.236 8.28 8.28 0 0 1 .239-2.217 3.784 3.784 0 0 1 5.728-1.809 3.778 3.778 0 0 1 1.384 1.809c.187.73.27 1.482.248 2.236a7.868 7.868 0 0 1-.248 2.235 3.754 3.754 0 0 1-7.093 0v-.018Zm5.888-.377a8.482 8.482 0 0 0 .147-1.84 7.887 7.887 0 0 0-.147-1.84 2.431 2.431 0 0 0-2.342-1.784 2.43 2.43 0 0 0-2.341 1.784 7.997 7.997 0 0 0-.147 1.84 7.946 7.946 0 0 0 .147 1.84 2.427 2.427 0 0 0 3.813 1.286c.423-.322.728-.774.87-1.286Z" fill="#263238"/><path d="M384.643 197.377h-31.234v19.669h31.234v-19.669Z" fill="#fff" stroke="#263238" stroke-linecap="round" stroke-linejoin="round"/><path d="M384.808 197.377h-31.234v1.904h31.234v-1.904ZM384.808 200.358h-31.234v1.904h31.234v-1.904ZM384.808 203.329h-31.234v1.905h31.234v-1.905ZM384.808 206.31h-31.234v1.904h31.234v-1.904ZM384.808 209.291h-31.234v1.904h31.234v-1.904ZM384.808 212.272h-31.234v1.904h31.234v-1.904ZM384.808 215.252h-31.234v1.905h31.234v-1.905Z" fill="#263238"/><path d="M368.552 197.377h-15.143v10.479h15.143v-10.479Z" fill="#263238"/><path d="m353.997 198.26.138.294.295.046-.212.23.046.322-.267-.147-.257.147.046-.322-.212-.23.295-.046.128-.294ZM353.997 200.201l.138.295.295.046-.212.23.046.322-.267-.157-.257.157.046-.322-.212-.23.295-.046.128-.295ZM353.997 202.133l.138.295.295.046-.212.23.046.322-.267-.157-.257.157.046-.322-.212-.23.295-.046.128-.295ZM353.997 204.065l.138.295.295.055-.212.221.046.322-.267-.148-.257.148.046-.322-.212-.221.295-.055.128-.295ZM353.997 206.006l.138.295.295.046-.212.23.046.322-.267-.157-.257.157.046-.322-.212-.23.295-.046.128-.295ZM355.387 199.392l.128.294.295.046-.212.23.046.322-.257-.147-.267.147.046-.322-.212-.23.295-.046.138-.294ZM355.387 201.333l.128.294.295.046-.212.23.046.322-.257-.156-.267.156.046-.322-.212-.23.295-.046.138-.294ZM355.387 203.265l.128.294.295.046-.212.23.046.322-.257-.147-.267.147.046-.322-.212-.23.295-.046.138-.294ZM355.387 205.197l.128.294.295.046-.212.23.046.322-.257-.147-.267.147.046-.322-.212-.23.295-.046.138-.294ZM356.766 198.26l.138.294.295.046-.221.23.055.322-.267-.147-.266.147.055-.322-.221-.23.304-.046.128-.294ZM356.766 200.201l.138.295.295.046-.221.23.055.322-.267-.157-.266.157.055-.322-.221-.23.304-.046.128-.295ZM356.766 202.133l.138.295.295.046-.221.23.055.322-.267-.157-.266.157.055-.322-.221-.23.304-.046.128-.295ZM356.766 204.065l.138.295.295.055-.221.221.055.322-.267-.148-.266.148.055-.322-.221-.221.304-.055.128-.295ZM356.766 206.006l.138.295.295.046-.221.23.055.322-.267-.157-.266.157.055-.322-.221-.23.304-.046.128-.295ZM358.156 199.392l.129.294.294.046-.211.23.046.322-.258-.147-.267.147.046-.322-.211-.23.294-.046.138-.294ZM358.156 201.333l.129.294.294.046-.211.23.046.322-.258-.156-.267.156.046-.322-.211-.23.294-.046.138-.294ZM358.156 203.265l.129.294.294.046-.211.23.046.322-.258-.147-.267.147.046-.322-.211-.23.294-.046.138-.294ZM358.156 205.197l.129.294.294.046-.211.23.046.322-.258-.147-.267.147.046-.322-.211-.23.294-.046.138-.294ZM359.536 198.26l.129.294.294.046-.212.23.056.322-.267-.147-.267.147.046-.322-.211-.23.294-.046.138-.294ZM359.536 200.201l.129.295.294.046-.212.23.056.322-.267-.157-.267.157.046-.322-.211-.23.294-.046.138-.295ZM359.536 202.133l.129.295.294.046-.212.23.056.322-.267-.157-.267.157.046-.322-.211-.23.294-.046.138-.295ZM359.536 204.065l.129.295.294.055-.212.221.056.322-.267-.148-.267.148.046-.322-.211-.221.294-.055.138-.295ZM359.536 206.006l.129.295.294.046-.212.23.056.322-.267-.157-.267.157.046-.322-.211-.23.294-.046.138-.295ZM360.915 199.392l.138.294.295.046-.212.23.046.322-.267-.147-.266.147.055-.322-.212-.23.295-.046.128-.294ZM360.915 201.333l.138.294.295.046-.212.23.046.322-.267-.156-.266.156.055-.322-.212-.23.295-.046.128-.294ZM360.915 203.265l.138.294.295.046-.212.23.046.322-.267-.147-.266.147.055-.322-.212-.23.295-.046.128-.294ZM360.915 205.197l.138.294.295.046-.212.23.046.322-.267-.147-.266.147.055-.322-.212-.23.295-.046.128-.294ZM362.305 198.26l.129.294.295.046-.212.23.046.322-.258-.147-.266.147.046-.322-.212-.23.294-.046.138-.294ZM362.305 200.201l.129.295.295.046-.212.23.046.322-.258-.157-.266.157.046-.322-.212-.23.294-.046.138-.295ZM362.305 202.133l.129.295.295.046-.212.23.046.322-.258-.157-.266.157.046-.322-.212-.23.294-.046.138-.295ZM362.305 204.065l.129.295.295.055-.212.221.046.322-.258-.148-.266.148.046-.322-.212-.221.294-.055.138-.295ZM362.305 206.006l.129.295.295.046-.212.23.046.322-.258-.157-.266.157.046-.322-.212-.23.294-.046.138-.295ZM363.685 199.392l.129.294.304.046-.221.23.055.322-.267-.147-.266.147.055-.322-.221-.23.304-.046.128-.294ZM363.685 201.333l.129.294.304.046-.221.23.055.322-.267-.156-.266.156.055-.322-.221-.23.304-.046.128-.294ZM363.685 203.265l.129.294.304.046-.221.23.055.322-.267-.147-.266.147.055-.322-.221-.23.304-.046.128-.294ZM363.685 205.197l.129.294.304.046-.221.23.055.322-.267-.147-.266.147.055-.322-.221-.23.304-.046.128-.294ZM365.065 198.26l.138.294.294.046-.211.23.046.322-.267-.147-.258.147.046-.322-.211-.23.294-.046.129-.294ZM365.065 200.201l.138.295.294.046-.211.23.046.322-.267-.157-.258.157.046-.322-.211-.23.294-.046.129-.295ZM365.065 202.133l.138.295.294.046-.211.23.046.322-.267-.157-.258.157.046-.322-.211-.23.294-.046.129-.295ZM365.065 204.065l.138.295.294.055-.211.221.046.322-.267-.148-.258.148.046-.322-.211-.221.294-.055.129-.295ZM365.065 206.006l.138.295.294.046-.211.23.046.322-.267-.157-.258.157.046-.322-.211-.23.294-.046.129-.295ZM366.455 199.392l.129.294.294.046-.212.23.056.322-.267-.147-.267.147.046-.322-.212-.23.295-.046.138-.294ZM366.455 201.333l.129.294.294.046-.212.23.056.322-.267-.156-.267.156.046-.322-.212-.23.295-.046.138-.294ZM366.455 203.265l.129.294.294.046-.212.23.056.322-.267-.147-.267.147.046-.322-.212-.23.295-.046.138-.294ZM366.455 205.197l.129.294.294.046-.212.23.056.322-.267-.147-.267.147.046-.322-.212-.23.295-.046.138-.294ZM367.834 198.26l.138.294.295.046-.212.23.046.322-.267-.147-.266.147.055-.322-.212-.23.295-.046.128-.294ZM367.834 200.201l.138.295.295.046-.212.23.046.322-.267-.157-.266.157.055-.322-.212-.23.295-.046.128-.295ZM367.834 202.133l.138.295.295.046-.212.23.046.322-.267-.157-.266.157.055-.322-.212-.23.295-.046.128-.295ZM367.834 204.065l.138.295.295.055-.212.221.046.322-.267-.148-.266.148.055-.322-.212-.221.295-.055.128-.295ZM367.834 206.006l.138.295.295.046-.212.23.046.322-.267-.157-.266.157.055-.322-.212-.23.295-.046.128-.295Z" fill="#fff"/><path d="M149.868 217.663H133.74a31.543 31.543 0 0 0-37.332-21.083 31.55 31.55 0 0 0-23.876 35.611 31.549 31.549 0 0 0 33.681 26.529 31.55 31.55 0 0 0 29.027-31.554v-.708l14.628-8.795Z" fill="#fff" stroke="#263238" stroke-miterlimit="10"/><path d="M88.403 237.682a22.757 22.757 0 0 1-1.923 2.843 9.148 9.148 0 0 0-.782-.985 27.235 27.235 0 0 0 4.379-8.85l1.509.451c-.074.184-.23.221-.433.202a39.658 39.658 0 0 1-1.73 4.306l.525.147c0 .11-.12.202-.359.212v11.564h-1.186v-9.89Zm12.447.442c.147-.672.331-1.693.488-2.678h-3.616v10.617c0 1.307-.469 1.546-3.017 1.546a4.874 4.874 0 0 0-.451-1.251h1.959c.24 0 .313-.074.313-.313v-10.599h-2.925a16.042 16.042 0 0 1-1.84 3.441 4.971 4.971 0 0 0-.92-.745 19.682 19.682 0 0 0 2.999-7.406l1.509.405c0 .129-.157.202-.396.184a28.317 28.317 0 0 1-.92 2.981h8.676a31.926 31.926 0 0 1-.819 3.992l-1.04-.174Zm-5.814.598c-.055.128-.184.202-.405.202a17.857 17.857 0 0 1-2.76 6.072c-.3-.24-.624-.45-.966-.626a16.5 16.5 0 0 0 2.659-6.09l1.472.442Zm6.596 6.127a25.21 25.21 0 0 0-2.493-6.275l1.076-.377a24.29 24.29 0 0 1 2.586 6.21l-1.169.442ZM110.326 234.49l.69.174-.11.258a23.77 23.77 0 0 1-1.748 7.82 12.797 12.797 0 0 1 2.162 1.978l-.745 1.003a12.343 12.343 0 0 0-1.942-1.895 9.831 9.831 0 0 1-3.597 3.799 5.674 5.674 0 0 0-.763-1.003 8.59 8.59 0 0 0 3.413-3.542 24.126 24.126 0 0 0-2.07-1.398l-.221.8-1.04-.542c.46-1.601 1.022-3.91 1.546-6.256h-1.84v-1.15h2.07c.294-1.362.543-2.668.764-3.837l1.49.184c0 .129-.129.203-.359.221-.202 1.04-.46 2.217-.727 3.432h2.76l.267-.046Zm-3.275 1.196a173.8 173.8 0 0 1-1.187 4.885c.764.423 1.546.92 2.309 1.444a21.373 21.373 0 0 0 1.509-6.329h-2.631Zm13.874 3.128v1.177h-4.389v6.017c0 1.398-.543 1.619-3.763 1.582a6.193 6.193 0 0 0-.45-1.214h2.18c.616 0 .8 0 .8-.386v-6.036h-4.452v-1.177h4.452v-3.091h.598a18.395 18.395 0 0 0 2.696-2.963h-7.001v-1.15h7.921l.239-.073.966.607a.589.589 0 0 1-.294.175 22.859 22.859 0 0 1-3.892 4.204v2.254l4.389.074Z" fill="#263238"/><path d="M119.37 205.344H88.136v19.67h31.234v-19.67Z" fill="#263238" stroke="#263238" stroke-linecap="round" stroke-linejoin="round"/><path d="m91.825 206.503.764 1.537 1.683.239-1.223 1.196.294 1.674-1.518-.791-1.509.791.295-1.674-1.224-1.196 1.684-.239.754-1.537ZM96.729 205.905l.395.791.865.129-.626.607.148.865-.782-.405-.773.405.147-.865-.635-.607.874-.129.387-.791ZM97.787 209.898l.387.791.874.12-.635.616.147.865-.773-.405-.782.405.148-.865-.626-.616.865-.12.395-.791ZM95.192 212.511l.386.782.874.129-.625.616.147.865-.782-.414-.773.414.147-.865-.634-.616.874-.129.386-.782ZM91.595 213.707l.387.782.874.129-.626.616.147.865-.782-.405-.772.405.147-.865-.635-.616.874-.129.386-.782Z" fill="#fff"/><path d="M279.202 143.042a38.157 38.157 0 0 0-23.558-35.257 38.157 38.157 0 0 0-14.604-2.905h-13.285a38.164 38.164 0 0 0-38.161 38.162" stroke="#263238" stroke-width="3" stroke-linecap="round" stroke-linejoin="round"/><path d="M279.202 171.304v-28.262M189.594 143.042v28.262" stroke="#263238" stroke-width="6" stroke-linecap="round" stroke-linejoin="round"/><path d="M217.001 213.707s2.383 16.643 1.904 20.921c-.478 4.278-1.426 8.556-13.312 3.799-11.887-4.756-33.277 3.809-47.067 20.443-13.791 16.633-39.928 72.266-39.928 78.917 0 6.652 5.225 15.64 14.72 17.112 9.494 1.472 31.85-25.668 31.85-25.668s9.504 53.719 9.504 57.96-4.26 32.329-4.26 32.329h134.541l-5.235-34.702 9.513-76.544s39.459 53.718 48.015 56.12c8.556 2.401 21.868-1.905 25.198-11.887 3.331-9.982-1.904-20.442-8.565-28.051-6.661-7.608-48.484-74.639-56.12-80.812-7.636-6.174-28.998-6.661-36.607-4.757-7.608 1.905-20.442 4.757-23.772 2.852-3.331-1.904-3.322-19.964 0-28.051.027.019-28.971 7.627-40.379.019Z" fill="#fff" stroke="#263238" stroke-linecap="round" stroke-linejoin="round"/><path d="M198.417 358.46a48.43 48.43 0 0 0 4.683 1.536M173.88 327.962s2.116 18.473 19.523 28.152M228.022 273.856l9.256 13.524M319.544 286.782l2.447-5.096M315.578 280.26l-6.348 28.05 7.802-16.274M344.08 330.804s10.046-6.44 19.936-6.44" stroke="#263238" stroke-linecap="round" stroke-linejoin="round"/><path d="M323.638 350.097a137.143 137.143 0 0 0 18.206-11.795 40.74 40.74 0 0 1 28.98-8.206c9.486 1.021 14.619 12.816 14.868 24.619.248 11.804-6.155 18.971-17.692 20.765-11.537 1.794-25.135-.764-33.589-2.816a111.525 111.525 0 0 0-13.598-2.566s-11.021-16.928 2.825-20.001Z" fill="#fff" stroke="#263238" stroke-linecap="round" stroke-linejoin="round"/><path d="M385.692 354.715c-.249-11.803-5.382-23.598-14.867-24.619a40.739 40.739 0 0 0-28.98 8.206l-1.288.985c11.04.377 33.359 4.885 29.863 35.714 10.009-2.401 15.511-9.347 15.272-20.286ZM217 213.707s2.383 16.643 1.905 20.921c-.359 3.21-.985 6.44-6.284 5.814 7.581 12.392 29.596 41.483 50.14 1.84-2.392.147-4.324 0-5.354-.57-3.322-1.905-3.322-19.964 0-28.051 0 .046-28.999 7.654-40.407.046Z" fill="#fff" stroke="#263238" stroke-linecap="round" stroke-linejoin="round"/><path d="M217 213.707s.616 4.324 1.159 9.126a42.12 42.12 0 0 0 17.848 4.858 34.465 34.465 0 0 0 19.421-5.621c.308-2.86.972-5.669 1.978-8.363 0 0-28.998 7.608-40.406 0ZM190.872 156.17h-2.622a5.833 5.833 0 0 0-5.833 5.833v22.319a5.834 5.834 0 0 0 5.833 5.833h2.622a5.833 5.833 0 0 0 5.833-5.833v-22.319a5.832 5.832 0 0 0-5.833-5.833Z" fill="#263238" stroke="#263238" stroke-linecap="round" stroke-linejoin="round"/><path d="M191.02 156.198h-2.926v33.929h2.926v-33.929Z" fill="#fff" stroke="#263238" stroke-linecap="round" stroke-linejoin="round"/><path d="M280.775 156.17h-2.622a5.833 5.833 0 0 0-5.833 5.833v22.319a5.834 5.834 0 0 0 5.833 5.833h2.622a5.834 5.834 0 0 0 5.833-5.833v-22.319a5.833 5.833 0 0 0-5.833-5.833Z" fill="#263238" stroke="#263238" stroke-linecap="round" stroke-linejoin="round"/><path d="M280.932 156.198h-2.926v33.929h2.926v-33.929ZM167.1 183.006a6.712 6.712 0 0 0-5.327 3.552c-2.134 3.551-8.878 16.688-8.169 20.598.708 3.91 30.185 31.602 30.185 33.378 0 1.776-23.433 33.736-39.063 47.941-15.631 14.205-28.051 30.176-30.186 42.964-2.134 12.788 5.327 23.433 13.147 25.567 7.82 2.134 17.397-2.484 28.401-16.339 11.003-13.855 41.197-74.217 45.816-94.76 0 0 1.058-9.2-3.202-14.564-4.26-5.363-14.913-17.756-14.913-17.756s2.134-24.499.359-26.275c-1.776-1.776-3.552 2.134-3.552 2.134s-1.646-8.215-3.91-7.82c-2.474.442-3.192 3.552-3.192 3.552s-1.776-7.149-6.394-2.172Z" fill="#fff" stroke="#263238" stroke-linecap="round" stroke-linejoin="round"/><path d="M180.597 189.4s-5.097 20.397-4.601 23.838M173.494 185.132s-5.401 19.835-6.091 22.595a6.804 6.804 0 0 0 .865 5.345M167.099 183.006s-7.626 21.271-7.626 23.516c0 2.244 1.729 4.995 1.729 4.995" stroke="#263238" stroke-linecap="round" stroke-linejoin="round"/><path d="M160.31 271.888a187.305 187.305 0 0 1-15.584 16.56c-15.64 14.195-28.051 30.176-30.186 42.964-2.134 12.788 5.327 23.432 13.147 25.566 7.82 2.135 17.397-2.484 28.401-16.339 6.338-7.967 19.016-31.335 29.522-53.663-16.008-4.251-22.613-10.875-25.3-15.088ZM196.393 138.561s-.616 49.432 1.242 58.705c1.858 9.274 18.538 25.024 37.72 25.641 19.182.616 34.298-16.993 36.147-26.266 1.849-9.274 0-46.341-.304-61.171-.303-14.83-21.629-28.115-43.24-24.72-21.611 3.394-32.798 16.063-31.565 27.811Z" fill="#fff" stroke="#263238" stroke-linecap="round" stroke-linejoin="round"/><path d="M243.359 158.645s1.233 8.648 2.475 10.497c1.241 1.849 3.394 4.333-.92 6.182-4.315 1.85-7.728-.312-7.728-2.474" stroke="#263238" stroke-linecap="round" stroke-linejoin="round"/><path d="M247.996 189.226s-16.689 2.134-24.104-5.226c0 0 1.84 11.436 7.415 13.294 5.575 1.858 16.689-8.068 16.689-8.068Z" fill="#fff" stroke="#263238" stroke-linecap="round" stroke-linejoin="round"/><path d="m226.366 158.948 1.546 4.941" stroke="#263238" stroke-linecap="round" stroke-linejoin="round"/><path d="M219.567 163.585s4.324 2.76 12.356.304" stroke="#263238" stroke-width="2" stroke-linecap="round" stroke-linejoin="round"/><path d="m256.644 158.948 1.545 4.941" stroke="#263238" stroke-linecap="round" stroke-linejoin="round"/><path d="M249.845 163.585s4.324 2.76 12.365.304M217.406 150.3a16.215 16.215 0 0 1 12.972-6.486M247.066 143.189s8.961-2.466 15.144 4.6" stroke="#263238" stroke-width="2" stroke-linecap="round" stroke-linejoin="round"/><path d="M235.52 156.4a8.542 8.542 0 0 1-.11 8.814l-.175.276a14.376 14.376 0 0 1-12.208 6.78h-1.932a11.212 11.212 0 0 1-9.697-5.584v0a9.318 9.318 0 0 1-.534-8.28 9.295 9.295 0 0 1 7.986-5.677l8.795-.552a8.515 8.515 0 0 1 7.875 4.223v0ZM245.641 156.4a8.533 8.533 0 0 0 .11 8.814l.175.276a14.376 14.376 0 0 0 12.208 6.78h1.932a11.212 11.212 0 0 0 9.697-5.584v0a9.279 9.279 0 0 0 .534-8.28v0a9.295 9.295 0 0 0-7.986-5.677l-8.786-.552a8.535 8.535 0 0 0-7.884 4.223v0ZM236.56 158.019s2.76-2.162 8.031 0M232.853 153.392h15.143M210.846 158.396h-14.453" stroke="#263238" stroke-linecap="round" stroke-linejoin="round"/><path d="M251.703 125.58s8.004 25.705 20.157 32.347c-.267-8.813-.579-17.093-.69-22.457-.313-14.83-21.629-28.115-43.24-24.72-21.611 3.394-32.752 16.063-31.519 27.811 0 0-.101 8.069-.092 18.308 10.433-4.499 37.904-17.029 55.384-31.289Z" fill="#263238"/><path d="M194.249 150.116s40.526-16.992 62.431-38.566M190.974 136.39s42.495-9.807 67.013-35.632M259.615 114.485s.653 16.67 18.308 32.034" stroke="#737373" stroke-linecap="round" stroke-linejoin="round"/><path d="M255.015 218.215s0 11.205-8.4 29.063c-8.4 17.857-8.758 35.714-3.156 49.017 5.603 13.303 20.664 18.566 36.8 12.613 16.137-5.952 18.207-32.568 16.459-48.677-1.748-16.109-17.48-35.015-21.013-44.473-3.532-9.457-5.952-14.352-5.952-14.352s-9.108 12.604-14.72 15.401l-.018 1.408Z" fill="#263238"/><path d="M260.921 205.684a87.954 87.954 0 0 1-5.879 45.08c-9.807 23.534-2.291 48.705 9.154 53.931 11.445 5.225 22.549 3.275 28.106-3.919" stroke="#737373" stroke-linecap="round" stroke-linejoin="round"/><path d="M265.172 200.459s11.113 26.146 6.541 45.761c-4.572 19.614-2.613 44.5 11.114 49.358 13.726 4.857 21.574-4.858 21.574-4.858" stroke="#737373" stroke-linecap="round" stroke-linejoin="round"/><path d="M278.576 217.451s9.476 35.954 9.476 54.584c0 18.63 11.445 15.695 14.389 6.541" stroke="#737373" stroke-linecap="round" stroke-linejoin="round"/><path d="M255.015 218.215s0 11.205-8.4 29.063c-8.4 17.857-8.758 35.714-3.156 49.017 5.603 13.303 20.664 18.566 36.8 12.613 16.137-5.952 18.207-32.568 16.459-48.677-1.748-16.109-17.48-35.015-21.013-44.473-3.532-9.457-5.952-14.352-5.952-14.352s-9.108 12.604-14.72 15.401l-.018 1.408Z" stroke="#263238" stroke-linecap="round" stroke-linejoin="round"/><path d="m298.228 317.333-59.733-2.409a4.774 4.774 0 0 0-4.964 4.578l-3.327 82.475a4.776 4.776 0 0 0 4.579 4.964l59.733 2.409a4.773 4.773 0 0 0 4.963-4.578l3.327-82.475a4.775 4.775 0 0 0-4.578-4.964Z" fill="#263238" stroke="#263238" stroke-linecap="round" stroke-linejoin="round"/><path d="M328.661 350.695s-30.581-9.513-35.797-11.114c-5.216-1.601-35.264 20.838-36.46 24.04-1.196 3.201 3.202 3.211 3.202 3.211s-1.84 3.201.92 4.802c.87.586 1.795 1.088 2.76 1.5 0 0-1.601 3.606 1.601 4.811 3.201 1.205 7.617-2.005 7.617-2.005l7.213-5.208s-8.666 10.608-6.817 12.825c2.548 3.036 4.177-.221 4.177-.221l9.963-11.803 10.01-4.812s8.013 4.812 20.838 5.207c12.825.396 15.64-5.207 15.64-5.207" fill="#fff"/><path d="M328.661 350.695s-30.581-9.513-35.797-11.114c-5.216-1.601-35.264 20.838-36.46 24.04-1.196 3.201 3.202 3.211 3.202 3.211s-1.84 3.201.92 4.802c.87.586 1.795 1.088 2.76 1.5 0 0-1.601 3.606 1.601 4.811 3.201 1.205 7.617-2.005 7.617-2.005l7.213-5.208s-8.666 10.608-6.817 12.825c2.548 3.036 4.177-.221 4.177-.221l9.963-11.803 10.01-4.812s8.013 4.812 20.838 5.207c12.825.396 15.64-5.207 15.64-5.207" stroke="#263238" stroke-linecap="round" stroke-linejoin="round"/><path d="M263.351 373.134s11.233-7.71 14.03-10.498c2.796-2.787 11.858-8.611 14.655-8.611M279.781 370.76s5.52-6.238 7.599-7.167c2.08-.929 5.116-2.327 5.116-2.327M259.606 366.832s15.64-11.04 20.995-14.288a75.507 75.507 0 0 1 10-5.124" stroke="#263238" stroke-linecap="round" stroke-linejoin="round"/></svg>